<svg width="24" height="24" viewBox="0 0 24 24" fill="none" xmlns="http://www.w3.org/2000/svg">
<path d="M13.8415 12.1917C12.5088 12.8788 12.1246 14.3747 12.3009 15.7387C12.4178 16.3688 12.7973 16.9377 13.0737 17.5109C13.304 18.0453 13.288 18.5658 12.9044 19.0363C11.8666 20.4814 9.47135 19.5037 9.86651 17.6213C9.46484 17.6363 9.18215 17.8363 8.97428 18.131C7.82285 19.5641 8.66036 21.4878 10.0964 22.3614C10.3277 22.5192 10.6691 22.724 10.5209 23.0515C10.4389 23.2382 10.2802 23.3047 10.0781 23.2884C6.99095 23.0397 4.7081 21.1406 3.85772 18.166C3.16055 16.3096 3.88511 12.2447 5.94971 11.5947C6.35402 11.5141 6.68252 11.8054 6.63044 12.214C6.58748 12.5508 6.47243 12.8819 6.36101 13.2058C5.95871 14.1826 6.94418 15.6723 7.99238 14.9974C8.26064 14.8328 8.40422 14.5971 8.4242 14.2847C8.53364 12.4228 6.61244 11.7133 6.9848 9.64773C6.91088 8.7222 8.67371 5.94927 9.6437 6.60498C9.81023 6.74571 9.86462 6.9351 9.80336 7.13655C9.63884 7.6815 9.28709 8.17845 9.36095 8.77071C9.4097 9.60966 10.5426 10.2395 11.2736 9.8139C11.969 9.40896 12.5909 8.5875 11.9802 7.54668C11.7622 7.17507 11.5632 6.79236 11.3482 6.41895C8.91428 2.4978 14.7676 -1.50569 14.934 0.564479C14.7493 1.52463 13.9593 2.27361 13.8985 3.28113C13.836 3.65013 13.9268 3.99315 14.1218 4.31478C16.4861 7.674 19.1257 7.18296 17.264 12.241C17.1348 12.6526 17.2858 13.0864 17.795 12.9186C19.0052 12.5731 18.7256 11.1225 18.7937 10.1532C18.8072 9.93336 18.8863 9.75375 19.1146 9.68298C19.3359 9.61437 19.5156 9.70806 19.6167 9.89019C19.8595 10.3278 20.1062 10.7669 20.3016 11.2266C21.4041 13.8196 21.4468 16.4303 20.3738 19.0435C19.9982 19.9582 19.4224 20.7427 18.6568 21.3664C18.1483 21.7807 17.6063 22.1581 17.0541 22.5127C16.7025 22.7385 16.3999 22.7073 16.236 22.501C15.6249 21.8937 18.6706 18.9626 16.476 17.1958C14.6415 15.9505 13.0427 14.6747 13.8415 12.1917Z" fill="black"/>
</svg>
