<svg width="24" height="24" viewBox="0 0 24 24" fill="none" xmlns="http://www.w3.org/2000/svg">
<g clip-path="url(#clip0_15_203)">
<path d="M12.3193 14.5014C11.8933 14.9273 11.8933 15.6181 12.3193 16.0441C12.5324 16.2571 12.8115 16.3637 13.0908 16.3637C13.3699 16.3637 13.6492 16.2571 13.8621 16.0441L17.1347 12.7716C17.1599 12.7464 17.1838 12.7199 17.2065 12.6923C17.2115 12.6862 17.2158 12.6795 17.2208 12.6732C17.2379 12.6515 17.2547 12.6296 17.2702 12.6065C17.2742 12.6005 17.2776 12.5941 17.2814 12.5881C17.2968 12.5641 17.3118 12.5399 17.3253 12.5148C17.3276 12.5105 17.3294 12.5059 17.3317 12.5015C17.3458 12.4743 17.3592 12.4467 17.371 12.4182C17.3723 12.4153 17.3731 12.4123 17.3742 12.4094C17.3864 12.3795 17.3975 12.3491 17.4069 12.3179C17.408 12.3145 17.4085 12.3111 17.4096 12.3077C17.4185 12.2772 17.4267 12.2463 17.4329 12.2148C17.4347 12.206 17.4355 12.1969 17.437 12.1881C17.4416 12.1619 17.4461 12.1357 17.4488 12.1089C17.4524 12.0729 17.4543 12.0366 17.4543 12.0001C17.4543 11.9635 17.4524 11.9272 17.4488 11.8912C17.4461 11.8642 17.4415 11.8378 17.4368 11.8114C17.4353 11.8028 17.4346 11.794 17.4328 11.7854C17.4265 11.7536 17.4184 11.7225 17.4093 11.6919C17.4084 11.6887 17.4079 11.6855 17.4069 11.6823C17.3973 11.6508 17.3861 11.6203 17.3739 11.5901C17.3728 11.5875 17.372 11.5847 17.3709 11.582C17.3589 11.5534 17.3455 11.5256 17.3313 11.4983C17.3291 11.494 17.3274 11.4896 17.3251 11.4855C17.3115 11.4601 17.2965 11.4359 17.2811 11.4118C17.2772 11.4058 17.274 11.3996 17.2701 11.3937C17.2546 11.3706 17.2377 11.3486 17.2206 11.3268C17.2157 11.3206 17.2114 11.314 17.2064 11.3079C17.1837 11.2803 17.1597 11.2538 17.1345 11.2285L13.862 7.95595C13.436 7.52992 12.7452 7.52992 12.3192 7.95595C11.8932 8.38199 11.8932 9.07267 12.3192 9.49871L13.7296 10.9092H1.0909C0.488433 10.9092 0 11.3976 0 12.0001C0 12.6025 0.488433 13.091 1.0909 13.091H13.7297L12.3193 14.5014Z" fill="black"/>
<path d="M15.0764 3.07635C12.0986 3.07635 9.32808 4.55357 7.66533 7.02781C7.32926 7.52788 7.4622 8.2057 7.96227 8.54169C8.46234 8.87776 9.14015 8.74482 9.47615 8.24475C10.7329 6.37465 12.8265 5.25815 15.0764 5.25815C18.7939 5.25815 21.8183 8.28257 21.8183 12C21.8183 15.7174 18.7938 18.7418 15.0764 18.7418C12.8332 18.7418 10.743 17.6304 9.48524 15.7686C9.14794 15.2694 8.46983 15.1381 7.97056 15.4754C7.47136 15.8127 7.34002 16.4908 7.67733 16.9901C9.34146 19.4532 12.1075 20.9237 15.0764 20.9237C19.997 20.9237 24.0001 16.9205 24.0001 12C24.0001 7.07952 19.9969 3.07635 15.0764 3.07635Z" fill="black"/>
</g>
<defs>
<clipPath id="clip0_15_203">
<rect width="24" height="24" fill="white"/>
</clipPath>
</defs>
</svg>
