<svg width="24" height="24" viewBox="0 0 24 24" fill="none" xmlns="http://www.w3.org/2000/svg">
<g clip-path="url(#clip0_15_120)">
<path d="M22.3914 4.1633L15.9253 1.80994V19.5886C15.9253 20.7688 14.963 21.731 13.7829 21.731H9.20508L15.2028 23.9125C15.9431 24.1842 16.7656 23.8018 17.0339 23.0579L23.2462 5.99447C23.5145 5.25403 23.1318 4.43498 22.3914 4.1633ZM20.6461 7.7932C20.471 7.86131 20.2635 7.81833 20.1097 7.70381C20.0417 7.65384 19.9845 7.58573 19.9488 7.51064C19.9165 7.61437 19.8878 7.72195 19.87 7.8218C19.8664 7.8218 19.8664 7.8218 19.8664 7.8218V7.82531C19.8271 8.0115 19.8021 8.1938 19.8021 8.3618L19.5911 8.28323L19.3014 8.1795C19.3157 8.16169 19.3335 8.14041 19.3407 8.12222C19.3407 8.12222 19.3442 8.1187 19.3479 8.1187C19.4981 7.92558 19.6233 7.686 19.7305 7.43208C19.4837 7.54317 19.1511 7.43559 19.0188 7.19948C18.822 6.84914 19.0616 6.46289 19.4015 6.24459C19.4122 6.23766 19.4193 6.23414 19.4301 6.22678C19.4372 6.22326 19.4444 6.2198 19.4516 6.21595C19.6447 6.09825 19.87 5.9872 20.0703 5.87995C20.2527 5.7832 20.4137 5.69381 20.5031 5.60086C20.5137 5.58651 20.5209 5.58651 20.528 5.58651C20.5317 5.59003 20.5351 5.59387 20.5388 5.61169C20.5388 5.6295 20.5423 5.65116 20.5494 5.67244C20.5781 5.85126 20.689 6.10167 20.7927 6.35906C20.857 6.51272 20.9179 6.6668 20.9644 6.81347C20.975 6.85261 20.9858 6.88856 20.9965 6.92766C21.0108 6.99928 21.018 7.07086 21.0216 7.13864C21.0253 7.42509 20.918 7.68947 20.6461 7.7932Z" fill="black"/>
<path d="M15.21 19.5886V1.42711C15.21 0.640219 14.5698 0 13.7829 0H2.09484C1.30814 0 0.667969 0.640219 0.667969 1.42711V19.5886C0.667969 20.3755 1.30819 21.0158 2.09489 21.0158H13.7829C14.5698 21.0158 15.21 20.3755 15.21 19.5886ZM3.95822 4.32778C3.85814 4.28133 3.77222 4.21322 3.70083 4.13114C3.71513 4.30261 3.73664 4.47061 3.76523 4.62816C3.79373 4.764 3.82603 4.89291 3.86883 5.01094H3.26091C3.28238 4.95366 3.30384 4.89291 3.31819 4.82827C3.33605 4.77136 3.35034 4.71024 3.36098 4.64944C3.39328 4.48495 3.41461 4.30997 3.42891 4.13114C3.36816 4.20239 3.29672 4.25967 3.21445 4.30261C3.19645 4.31344 3.17864 4.32427 3.16069 4.33125C3.07125 4.37072 2.97469 4.392 2.87114 4.392C2.47402 4.392 2.1487 4.06645 2.1487 3.66586C2.1487 3.4193 2.27377 3.20095 2.46342 3.07247C2.46342 3.07247 2.46342 3.06863 2.46694 3.06863C2.57063 2.997 2.69236 2.95444 2.82459 2.94708C2.83889 2.94356 2.85689 2.94356 2.87119 2.94356C2.91398 2.94356 2.9498 2.94708 2.98908 2.95439C2.96058 2.91492 2.93198 2.87198 2.91398 2.82548C2.87817 2.75738 2.85689 2.68613 2.84972 2.60723C2.84606 2.57508 2.84259 2.54644 2.84259 2.51433C2.84259 2.12803 3.15009 1.80638 3.53639 1.79208H3.57933C3.97261 1.79906 4.28747 2.12109 4.28747 2.51433C4.28747 2.62889 4.26234 2.73961 4.21237 2.83636C4.19808 2.87198 4.17656 2.90409 4.15509 2.93273C4.15139 2.94005 4.14427 2.94708 4.1408 2.95439C4.15139 2.95055 4.16227 2.95055 4.17291 2.95055C4.20155 2.94708 4.23019 2.94356 4.25878 2.94356H4.29094C4.67353 2.96138 4.98127 3.27956 4.98127 3.66586C4.98127 4.06645 4.65577 4.392 4.25878 4.392C4.15134 4.39205 4.04766 4.36688 3.95822 4.32778ZM9.54839 12.8076C9.30511 12.8076 9.0727 12.7538 8.86172 12.6609C8.62561 12.5572 8.41814 12.3961 8.25712 12.203C8.2643 12.2959 8.27147 12.3854 8.27859 12.4786C8.31089 12.7898 8.35369 13.0972 8.41097 13.3871C8.46825 13.6909 8.54686 13.9808 8.64342 14.2491H7.23431C7.33087 13.9808 7.40963 13.6909 7.46677 13.3871C7.52405 13.0972 7.56698 12.7898 7.59914 12.4786C7.60631 12.3854 7.61344 12.296 7.62061 12.203C7.45959 12.3962 7.25231 12.5572 7.0162 12.6609C6.80526 12.7538 6.57262 12.8076 6.32958 12.8076C5.98256 12.8076 5.66072 12.7004 5.3925 12.5216C4.94545 12.2209 4.64859 11.706 4.64859 11.1266C4.64859 10.4756 5.02406 9.90694 5.56767 9.63174C5.76797 9.52416 5.99344 9.46341 6.23302 9.44911C6.26517 9.44559 6.29728 9.44559 6.32958 9.44559C6.39033 9.44559 6.45113 9.44911 6.50841 9.45642C6.54056 9.45642 6.56916 9.46341 6.60131 9.4672C6.57984 9.43861 6.55486 9.40645 6.53705 9.37397C6.49758 9.31706 6.46177 9.25242 6.42966 9.18816C6.36173 9.0488 6.30811 8.89472 6.28298 8.73375C6.26517 8.64084 6.258 8.54442 6.258 8.44767C6.258 7.68595 6.76584 7.04227 7.45964 6.8348C7.59567 6.79533 7.73869 6.77053 7.88887 6.77053C7.89239 6.76669 7.89605 6.76669 7.89952 6.76669H7.97826C7.98173 6.76669 7.98544 6.76669 7.98891 6.77053C8.89388 6.79533 9.61978 7.53928 9.61978 8.44772C9.61978 8.54447 9.61266 8.64089 9.5948 8.7338C9.56986 8.89477 9.51605 9.0488 9.44812 9.1882C9.39816 9.28842 9.34087 9.38133 9.27647 9.46725C9.36591 9.45295 9.4553 9.44559 9.54839 9.44559C9.58055 9.44559 9.61266 9.44559 9.64495 9.44911C9.88453 9.46341 10.1098 9.5242 10.3101 9.63174C10.8537 9.90694 11.2292 10.4756 11.2292 11.1266C11.2292 12.0528 10.4746 12.8076 9.54839 12.8076ZM13.0068 19.0378C12.8994 19.0378 12.7958 19.0162 12.7065 18.9735C12.685 18.9627 12.6635 18.9519 12.642 18.9375C12.5704 18.8985 12.5025 18.8412 12.4489 18.7765C12.4632 18.9519 12.4847 19.1199 12.5168 19.2809C12.5418 19.4133 12.5741 19.5422 12.6171 19.6602H12.009C12.0519 19.5348 12.0876 19.4025 12.1162 19.2631C12.1342 19.1559 12.1485 19.0486 12.1591 18.9376C12.1663 18.8842 12.1734 18.8303 12.177 18.7766C12.1162 18.8517 12.0411 18.9125 11.9553 18.9554C11.9482 18.9627 11.9374 18.9662 11.9302 18.9662C11.8373 19.0127 11.7299 19.0378 11.6192 19.0378C11.2221 19.0378 10.8967 18.7158 10.8967 18.3152C10.8967 17.9328 11.1935 17.6215 11.5654 17.5964C11.5834 17.5929 11.6012 17.5929 11.6192 17.5929C11.662 17.5929 11.6978 17.5929 11.7371 17.5999C11.7086 17.5608 11.68 17.5178 11.662 17.4714C11.6155 17.3785 11.5905 17.2748 11.5905 17.1637C11.5905 16.7704 11.9017 16.4484 12.2915 16.4376H12.3488C12.7314 16.4558 13.0355 16.7739 13.0355 17.1637C13.0355 17.2461 13.0211 17.3247 12.996 17.3963C12.996 17.3998 12.996 17.3998 12.996 17.3998C12.9889 17.4176 12.9817 17.4392 12.9675 17.457C12.9495 17.507 12.921 17.5573 12.8888 17.5999C12.9281 17.5929 12.9639 17.5929 13.0069 17.5929C13.0318 17.5929 13.0533 17.5929 13.0748 17.5964C13.1177 17.5999 13.1535 17.6072 13.1929 17.618C13.5004 17.7001 13.7294 17.9791 13.7294 18.3151C13.7293 18.7158 13.4038 19.0378 13.0068 19.0378Z" fill="black"/>
</g>
<defs>
<clipPath id="clip0_15_120">
<rect width="24" height="24" fill="white"/>
</clipPath>
</defs>
</svg>
