<svg width="24" height="24" viewBox="0 0 24 24" fill="none" xmlns="http://www.w3.org/2000/svg">
<path d="M11.25 19.4062V4.6875C11.25 4.6875 9.234 3 6.375 3C3.516 3 1.5 4.5 1.5 4.5V19.4062C1.5 19.4062 3.516 17.9528 6.375 17.9528C9.234 17.9528 11.25 19.4062 11.25 19.4062ZM21.75 19.4062V4.6875C21.75 4.6875 19.734 3 16.875 3C14.016 3 12 4.5 12 4.5V19.4062C12 19.4062 14.016 17.9528 16.875 17.9528C19.734 17.9528 21.75 19.4062 21.75 19.4062ZM23.25 6H22.5V20.25H13.5V21H9.75V20.25H0.75V6H0V21H9V21.75H14.2965L14.25 21H23.25V6Z" fill="black"/>
</svg>
