<svg width="24" height="24" viewBox="0 0 24 24" fill="none" xmlns="http://www.w3.org/2000/svg">
<path d="M22.3837 8.52966C22.3841 8.72404 22.3361 8.91546 22.2441 9.08668C22.1521 9.25791 22.0189 9.40355 21.8566 9.51049C21.6943 9.61743 21.5079 9.68232 21.3142 9.6993C21.1206 9.71629 20.9258 9.68483 20.7473 9.60778L17.8275 16.6512H6.15936L3.24186 9.61106C2.9782 9.72172 2.68318 9.73217 2.41236 9.64043C2.14154 9.54869 1.9136 9.3611 1.77147 9.11299C1.62935 8.86487 1.58284 8.57335 1.64071 8.29333C1.69858 8.01331 1.85683 7.76411 2.08567 7.59266C2.31451 7.42121 2.59813 7.33934 2.88313 7.36247C3.16813 7.3856 3.43485 7.51214 3.63304 7.71825C3.83123 7.92435 3.94723 8.19581 3.95918 8.4815C3.97114 8.76719 3.87823 9.0474 3.69795 9.26934L7.77608 12.6068L8.7567 6.68184C8.48065 6.63285 8.2313 6.48651 8.05393 6.26938C7.87655 6.05225 7.7829 5.77872 7.78998 5.49844C7.79705 5.21816 7.90437 4.9497 8.09247 4.74179C8.28057 4.53388 8.53698 4.4003 8.81515 4.3653C9.09333 4.33029 9.37484 4.39617 9.60858 4.55099C9.84233 4.70581 10.0128 4.9393 10.0891 5.20909C10.1654 5.47888 10.1425 5.76708 10.0244 6.02139C9.90638 6.2757 9.70107 6.47926 9.44576 6.59512L11.9915 12.0795L14.5425 6.58106C14.2887 6.46139 14.0863 6.25465 13.9721 5.99841C13.8578 5.74218 13.8393 5.45345 13.9198 5.18471C14.0004 4.91596 14.1747 4.68503 14.411 4.53388C14.6474 4.38274 14.9301 4.3214 15.2079 4.36102C15.4856 4.40065 15.7399 4.5386 15.9246 4.74981C16.1093 4.96102 16.212 5.23148 16.2142 5.51203C16.2164 5.79257 16.1179 6.06459 15.9365 6.27866C15.7551 6.49272 15.503 6.63462 15.2259 6.67856L16.207 12.6045L20.2973 9.26231C20.1802 9.11616 20.0999 8.94408 20.063 8.76048C20.0261 8.57687 20.0337 8.3871 20.0852 8.20706C20.1368 8.02702 20.2307 7.86195 20.3592 7.72568C20.4876 7.58942 20.6469 7.48593 20.8236 7.42388C21.0003 7.36183 21.1893 7.34303 21.3747 7.36906C21.5602 7.39509 21.7367 7.46519 21.8895 7.57348C22.0423 7.68177 22.1669 7.8251 22.2529 7.99147C22.3389 8.15783 22.3837 8.34238 22.3837 8.52966ZM19.0247 19.8383H4.96217V22.6508H19.0247V19.8383ZM17.7239 17.4008H6.27608V19.0883H17.7239V17.4008Z" fill="black"/>
</svg>
