<svg width="24" height="24" viewBox="0 0 24 24" fill="none" xmlns="http://www.w3.org/2000/svg">
<path fill-rule="evenodd" clip-rule="evenodd" d="M17.4697 19.9697C17.7626 19.6768 18.2374 19.6768 18.5303 19.9697L20.0303 21.4697C20.3232 21.7626 20.3232 22.2374 20.0303 22.5303C19.7374 22.8232 19.2626 22.8232 18.9697 22.5303L17.4697 21.0303C17.1768 20.7374 17.1768 20.2626 17.4697 19.9697Z" fill="black"/>
<path fill-rule="evenodd" clip-rule="evenodd" d="M6.53033 19.9697C6.23744 19.6768 5.76256 19.6768 5.46967 19.9697L3.96967 21.4697C3.67678 21.7626 3.67678 22.2374 3.96967 22.5303C4.26256 22.8232 4.73744 22.8232 5.03033 22.5303L6.53033 21.0303C6.82322 20.7374 6.82322 20.2626 6.53033 19.9697Z" fill="black"/>
<path fill-rule="evenodd" clip-rule="evenodd" d="M12 3.25C6.61779 3.25 2.25 7.61779 2.25 13C2.25 18.3822 6.61779 22.75 12 22.75C17.3822 22.75 21.75 18.3822 21.75 13C21.75 7.61779 17.3822 3.25 12 3.25ZM12.417 8.95911C12.417 8.54489 12.0812 8.20911 11.667 8.20911C11.2528 8.20911 10.917 8.54489 10.917 8.95911V12.6491C10.917 13.0941 11.0674 13.5365 11.2742 13.8993C11.4809 14.2617 11.7844 14.6155 12.1656 14.8417L12.1666 14.8423L14.9546 16.5061C15.3103 16.7184 15.7708 16.6021 15.983 16.2464C16.1953 15.8908 16.079 15.4303 15.7233 15.2181L12.9333 13.5531L12.9313 13.5519C12.827 13.4901 12.6899 13.3537 12.5772 13.1562C12.4646 12.9587 12.417 12.7712 12.417 12.6491V8.95911Z" fill="black"/>
<path fill-rule="evenodd" clip-rule="evenodd" d="M17.4378 1.50345C17.712 1.19304 18.186 1.16374 18.4964 1.438L22.2433 4.74864C22.5538 5.0229 22.5831 5.49687 22.3088 5.80728C22.0345 6.11769 21.5606 6.14699 21.2502 5.87273L17.5032 2.56209C17.1928 2.28783 17.1635 1.81386 17.4378 1.50345Z" fill="black"/>
<path fill-rule="evenodd" clip-rule="evenodd" d="M6.56194 1.50345C6.28767 1.19304 5.8137 1.16374 5.5033 1.438L1.75634 4.74864C1.44593 5.0229 1.41663 5.49687 1.69089 5.80728C1.96515 6.11769 2.43912 6.14699 2.74953 5.87273L6.49649 2.56209C6.8069 2.28783 6.8362 1.81386 6.56194 1.50345Z" fill="black"/>
</svg>
