<svg width="24" height="24" viewBox="0 0 24 24" fill="none" xmlns="http://www.w3.org/2000/svg">
<g clip-path="url(#clip0_15_204)">
<path d="M23.25 13.7805C23.6733 13.7475 24 13.3938 24 12.9697V11.0302C24 10.6054 23.6733 10.2524 23.25 10.2187L20.6799 10.018C20.5166 10.0056 20.376 9.90305 20.313 9.75141L19.4678 7.71159C19.4048 7.5607 19.4312 7.38787 19.5381 7.26408L21.2139 5.30409C21.4893 4.98108 21.4717 4.50061 21.1707 4.20033L19.7996 2.82923C19.4993 2.52895 19.0181 2.50988 18.6958 2.78602L16.7358 4.4618C16.612 4.56802 16.4385 4.59511 16.2883 4.53286L14.2478 3.68691C14.0969 3.62466 13.9936 3.48183 13.9805 3.31997L13.7805 0.750609C13.7475 0.326672 13.3945 0 12.9697 0H11.0303C10.6055 0 10.2525 0.326672 10.2195 0.75075L10.0188 3.32011C10.0064 3.48272 9.90309 3.6248 9.7522 3.68705L7.71169 4.533C7.5608 4.59525 7.38797 4.56816 7.26342 4.46194L5.30419 2.78616C4.98192 2.51002 4.50145 2.52909 4.20042 2.82938L2.82933 4.20047C2.52905 4.50075 2.51072 4.98122 2.78611 5.30423L4.46189 7.26422C4.56736 7.38802 4.5952 7.56084 4.5322 7.71173L3.687 9.75155C3.62545 9.90314 3.48267 10.0057 3.32077 10.0182L0.75 10.2188C0.326672 10.2525 0 10.6055 0 11.0303V12.969C0 13.3938 0.326672 13.7475 0.75 13.7805L3.32081 13.9805C3.48267 13.9937 3.6255 14.097 3.68705 14.2478L4.53225 16.2877C4.59525 16.4385 4.56741 16.6121 4.46194 16.7359L2.78616 18.6959C2.51077 19.0182 2.52909 19.4986 2.82938 19.7997L4.20047 21.1708C4.5015 21.471 4.98197 21.4894 5.30423 21.2132L7.26347 19.5375C7.38797 19.432 7.56084 19.4041 7.71173 19.4671L9.75225 20.3123C9.90314 20.3753 10.0064 20.5167 10.0189 20.68L10.2195 23.2494C10.2525 23.6727 10.6055 24.0001 11.0303 24.0001H12.9698C13.3946 24.0001 13.7476 23.6728 13.7806 23.2494L13.9806 20.68C13.9937 20.5167 14.097 20.3753 14.2479 20.3123L16.2884 19.4671C16.4385 19.4041 16.6129 19.432 16.7359 19.5375L18.6959 21.2132C19.0182 21.4894 19.4994 21.471 19.7997 21.1708L21.1708 19.7997C21.4718 19.4986 21.4894 19.0182 21.214 18.6959L19.5382 16.7359C19.4327 16.6121 19.4049 16.4385 19.4679 16.2877L20.3131 14.2478C20.3761 14.097 20.5167 13.9937 20.68 13.9805L23.25 13.7805ZM12 16.0554C10.9168 16.0554 9.89794 15.6336 9.13181 14.8682C8.36569 14.1014 7.94381 13.0833 7.94381 11.9993C7.94381 10.9161 8.36569 9.89723 9.13181 9.13186C9.89794 8.36503 10.9167 7.94386 12 7.94386C13.084 7.94386 14.1021 8.36498 14.8682 9.13186C15.6343 9.89723 16.0562 10.9161 16.0562 11.9993C16.0562 13.0833 15.6343 14.1014 14.8682 14.8682C14.1021 15.6336 13.084 16.0554 12 16.0554Z" fill="black"/>
</g>
<defs>
<clipPath id="clip0_15_204">
<rect width="24" height="24" fill="white"/>
</clipPath>
</defs>
</svg>
