<svg width="24" height="24" viewBox="0 0 24 24" fill="none" xmlns="http://www.w3.org/2000/svg">
<g clip-path="url(#clip0_15_124)">
<path d="M16.3123 23.2589H9.70728V24H16.3123V23.2589Z" fill="black"/>
<path d="M22.1377 5.30184C21.4819 2.98416 19.5613 1.99819 17.3596 2.37295C15.3321 2.71805 14.2731 5.2455 13.7797 6.77817C13.9261 4.74811 13.5514 1.92502 11.1293 0.606797C7.42865 -1.40756 5.08644 2.19947 4.85221 2.66789C4.61797 3.13636 4.61722 3.22598 5.2738 3.18319C5.46922 3.17039 7.17247 2.691 8.84347 2.99325L9.63032 2.26791L9.99482 3.29006C11.3797 3.77531 12.4908 5.01891 12.6906 6.88355C11.5671 5.50233 9.83455 4.61306 7.88319 4.61306C4.48991 4.61306 1.73999 7.28864 1.73999 10.589C1.73999 10.8547 1.74515 10.664 1.74515 10.664C1.75466 10.7892 1.8366 10.8972 1.95449 10.94C2.07233 10.9825 2.2048 10.9521 2.2919 10.8621C2.2919 10.8621 2.36066 10.7556 2.66812 10.4745C3.20976 9.97894 3.80554 9.54239 4.44379 9.17016L5.02719 8.08069L5.81474 8.499C6.99683 8.028 8.2858 7.76817 9.63552 7.76817C10.5263 7.76817 11.3907 7.88128 12.2149 8.09316C10.314 7.9673 7.44843 8.95833 6.31396 11.3777C4.90865 14.3758 6.29202 16.7553 6.4918 16.9416C6.65577 17.0942 6.8541 16.9753 6.90754 16.7092C7.02538 16.1277 7.34816 15.0407 7.94104 13.8217L7.70169 12.8549L8.36043 13.0235C9.18679 11.567 10.396 10.0376 12.1072 9.00736C11.0818 11.2665 10.2027 14.3378 10.6309 18.2423H2.46313V18.9834H10.7246C10.8263 19.6641 10.9698 20.37 11.1571 21.0994H7.05388V21.8405H11.3548H15.428H18.1559V21.0994H14.8249C14.4904 20.6247 14.0681 19.9188 13.6977 18.9834H21.9599V18.2423H13.4335C12.7894 16.2284 12.4629 13.3632 13.4423 9.62227C13.9093 10.2257 14.5036 11.1015 14.9991 12.1683L15.6264 12.2474L15.346 12.9976C15.6893 13.9163 15.9367 14.9424 15.9711 16.0407C15.9799 16.321 16.1489 16.5285 16.2353 16.3448C17.5587 13.5247 17.1422 10.6382 15.2875 8.95406C16.4571 9.3398 17.4131 10.2803 18.1574 11.3563L19.046 11.547L18.8806 12.5483C19.5035 13.7333 19.8863 14.9066 20.0224 15.5792C20.0766 15.8442 20.2171 16.017 20.3862 15.7154C21.3963 13.9185 21.5265 10.4703 19.7018 8.58263C18.287 7.11947 15.7903 7.02319 14.2532 7.4287C15.2626 5.73169 17.9627 5.60541 17.9627 5.60541C17.9627 5.60541 18.3902 4.62169 18.4839 4.48116C18.5776 4.34063 19.0929 5.43928 19.0929 5.43928L21.812 6.54999C21.812 6.54999 22.1612 6.78863 22.2292 6.38311C22.2702 6.13805 22.2951 5.76075 22.1377 5.30184Z" fill="black"/>
</g>
<defs>
<clipPath id="clip0_15_124">
<rect width="24" height="24" fill="white"/>
</clipPath>
</defs>
</svg>
