<svg width="121" height="32" viewBox="0 0 121 32" fill="none" xmlns="http://www.w3.org/2000/svg">
<path d="M109.103 2.24138V6.62069H106.931V13.3448C107.983 13.2414 109 13.1379 110 13L110.379 17C104.103 18.1724 96.931 18.3103 91.6897 18.3103L91.1379 13.8966L94.1724 13.8621V6.62069H91.931V2.24138H109.103ZM106.31 19.4828C113 19.5172 117.31 21.8276 117.31 25.7586C117.31 29.6897 113 31.9655 106.31 31.9655C99.4483 31.9655 95.1724 29.6897 95.1724 25.7586C95.1724 21.8276 99.4483 19.5172 106.31 19.4828ZM106.31 23.7931C102.448 23.7586 100.69 24.3103 100.724 25.7586C100.69 27.1724 102.448 27.6897 106.31 27.6897C110.103 27.6897 111.759 27.1724 111.759 25.7586C111.759 24.3103 110.103 23.7586 106.31 23.7931ZM117 0V7.2069H120.966V11.6552H117V19.0345H111.448V0H117ZM99.4828 13.7931L101.655 13.6897V6.62069H99.4828V13.7931Z" fill="black"/>
<path d="M86.8621 0.827576V11.069H69.8966V12.8276H87.6207V17.1724H64.3104V6.96551H81.138V5.24137H64.207V0.827576H86.8621ZM90.069 18.9655V23.3103H78.2414V32H72.6552V23.3103H60.9656V18.9655H90.069Z" fill="black"/>
<path d="M39.1379 18.1035V20.9655H50.7241V18.1035H56.1724V31.6207H33.7241V18.1035H39.1379ZM39.1379 27.1724H50.7241V25.1379H39.1379V27.1724ZM56.3793 1.20691V3.89656C56.3793 6.34484 56.3793 8.75863 55.7241 12.1724H59.5862V16.4828H30.4482V12.1724H50.2069C50.6896 9.58622 50.7931 7.50001 50.862 5.58622H33.931V1.20691H56.3793Z" fill="black"/>
<path d="M27.3793 0.0689697V18.3448H21.8621V17.7931H16.5517V14.5862H21.8621V0.0689697H27.3793ZM0 10.7931C6.17241 10.7931 13.6207 10.7586 20.4138 10.2069L20.6552 13.5517C18.0345 13.8966 15.3793 14.1207 12.7586 14.2414V18.3448H7.24138V14.4483C4.91379 14.5172 2.65517 14.5 0.551724 14.4828L0 10.7931ZM27.3793 19.1724V27.1379H9.93103V28H27.931V31.7586H4.48276V23.6552H21.8966V22.7931H4.37931V19.1724H27.3793ZM10.1379 0.379315C14.8966 0.413797 18.2414 2.34483 18.2414 5.17242C18.2414 8.13794 14.8966 9.96552 10.1379 9.96552C5.27586 9.96552 1.96552 8.13794 1.96552 5.17242C1.96552 2.34483 5.27586 0.413797 10.1379 0.379315ZM10.1379 3.93104C8.27586 3.93104 7.17241 4.34483 7.2069 5.17242C7.17241 6.03449 8.27586 6.37931 10.1379 6.37931C12 6.37931 13.1034 6.03449 13.1034 5.17242C13.1034 4.34483 12 3.93104 10.1379 3.93104Z" fill="black"/>
</svg>
