<svg width="449" height="706" viewBox="0 0 449 706" fill="none" xmlns="http://www.w3.org/2000/svg">
<path d="M4.5 4H440.5C442.709 4 444.5 5.79086 444.5 8V698C444.5 700.209 442.709 702 440.5 702H4.5V4Z" fill="#1A2D42" stroke="#DCA538" stroke-width="8"/>
<rect x="31.5" y="34" width="380" height="638" rx="4" fill="#1A2D42" stroke="#DCA538" stroke-width="8"/>
<path d="M105.5 94C104.5 93.0001 101.5 92.9998 101 96C100.501 99.0001 96.5 89.9997 96.5001 84.9998C96.5002 80 98.0003 76.5001 100 74C102 71.4998 105.5 68.4995 108.5 67C111.5 65.5004 117.5 64.5 116.5 66C115.5 67.5 115 68.5 115.5 70C116 71.5 118.5 72.5 120 72C121.5 71.5 122.5 70 122.5 68C122.5 66 120 61.5004 115.5 60.5C111 59.4995 104 62 99.5002 65.9998C95.0004 69.9996 92.5 77 93.0001 83.4998C93.5002 89.9997 98.0002 97.5 100 99C102 100.5 104.001 100.5 105.5 99C107 97.4998 106.5 94.9998 105.5 94Z" fill="#DCA538"/>
<path d="M91.5 91C88.2377 80.4403 88.6276 74.529 91 64C85.1472 66.4289 84 72 84 76C84 80 85.3277 81.9471 87 84.5C84.0288 82.922 82.5 82 81 79C79.5 76 78 68.5 74.5 65C71 61.5 66.6042 60.3735 61 60C63 66 61.5 70.5 64.5 73C67.5 75.5 82.5 83.5 91.5 91Z" fill="#DCA538"/>
<path d="M74 84.9998C84 85.9996 92.5152 92.1019 98.5 104.5C92.1973 98.9922 79.6682 97.9211 73 102.5C64.5347 108.313 63.5 121.5 65 119.5C66.5 117.5 70 117 71.5 118.5C73 120 73.5 123.5 71 125C68.5 126.5 65.5 125.5 63.5 124C61.5 122.5 60.5 120 60.5 117C60.5 114 62 103.5 68.5 99C75 94.5 81.0212 92.753 92 97.5C82.2328 88.8413 71.5 90.5 66 92C60.5 93.5 64 84 74 84.9998Z" fill="#DCA538"/>
<path d="M105.5 612C104.5 613 101.5 613 101 610C100.501 607 96.5 616 96.5001 621C96.5002 626 98.0003 629.5 100 632C102 634.5 105.5 637.501 108.5 639C111.5 640.5 117.5 641.5 116.5 640C115.5 638.5 115 637.5 115.5 636C116 634.5 118.5 633.5 120 634C121.5 634.5 122.5 636 122.5 638C122.5 640 120 644.5 115.5 645.5C111 646.501 104 644 99.5002 640C95.0004 636 92.5 629 93.0001 622.5C93.5002 616 98.0002 608.5 100 607C102 605.5 104.001 605.5 105.5 607C107 608.5 106.5 611 105.5 612Z" fill="#DCA538"/>
<path d="M91.5 615C88.2377 625.56 88.6276 631.471 91 642C85.1472 639.571 84 634 84 630C84 626 85.3277 624.053 87 621.5C84.0288 623.078 82.5 624 81 627C79.5 630 78 637.5 74.5 641C71 644.5 66.6042 645.626 61 646C63 640 61.5 635.5 64.5 633C67.5 630.5 82.5 622.5 91.5 615Z" fill="#DCA538"/>
<path d="M74 621C84 620 92.5152 613.898 98.5 601.5C92.1973 607.008 79.6682 608.079 73 603.5C64.5347 597.687 63.5 584.5 65 586.5C66.5 588.5 70 589 71.5 587.5C73 586 73.5 582.5 71 581C68.5 579.5 65.5 580.5 63.5 582C61.5 583.5 60.5 586 60.5 589C60.5 592 62 602.5 68.5 607C75 611.5 81.0212 613.247 92 608.5C82.2328 617.159 71.5 615.5 66 614C60.5 612.5 64 622 74 621Z" fill="#DCA538"/>
<path d="M343.5 94C344.5 93.0001 347.5 92.9998 348 96C348.499 99.0001 352.5 89.9997 352.5 84.9998C352.5 80 351 76.5001 349 74C347 71.4998 343.5 68.4995 340.5 67C337.5 65.5004 331.5 64.5 332.5 66C333.5 67.5 334 68.5 333.5 70C333 71.5 330.5 72.5 329 72C327.5 71.5 326.5 70 326.5 68C326.5 66 329 61.5004 333.5 60.5C338 59.4995 345 62 349.5 65.9998C354 69.9996 356.5 77 356 83.4998C355.5 89.9997 351 97.5 349 99C347 100.5 344.999 100.5 343.5 99C342 97.4998 342.5 94.9998 343.5 94Z" fill="#DCA538"/>
<path d="M357.5 91C360.762 80.4403 360.372 74.529 358 64C363.853 66.4289 365 72 365 76C365 80 363.672 81.9471 362 84.5C364.971 82.922 366.5 82 368 79C369.5 76 371 68.5 374.5 65C378 61.5 382.396 60.3735 388 60C386 66 387.5 70.5 384.5 73C381.5 75.5 366.5 83.5 357.5 91Z" fill="#DCA538"/>
<path d="M375 84.9998C365 85.9996 356.485 92.1019 350.5 104.5C356.803 98.9922 369.332 97.9211 376 102.5C384.465 108.313 385.5 121.5 384 119.5C382.5 117.5 379 117 377.5 118.5C376 120 375.5 123.5 378 125C380.5 126.5 383.5 125.5 385.5 124C387.5 122.5 388.5 120 388.5 117C388.5 114 387 103.5 380.5 99C374 94.5 367.979 92.753 357 97.5C366.767 88.8413 377.5 90.5 383 92C388.5 93.5 385 84 375 84.9998Z" fill="#DCA538"/>
<path d="M343.5 612C344.5 613 347.5 613 348 610C348.499 607 352.5 616 352.5 621C352.5 626 351 629.5 349 632C347 634.5 343.5 637.501 340.5 639C337.5 640.5 331.5 641.5 332.5 640C333.5 638.5 334 637.5 333.5 636C333 634.5 330.5 633.5 329 634C327.5 634.5 326.5 636 326.5 638C326.5 640 329 644.5 333.5 645.5C338 646.501 345 644 349.5 640C354 636 356.5 629 356 622.5C355.5 616 351 608.5 349 607C347 605.5 344.999 605.5 343.5 607C342 608.5 342.5 611 343.5 612Z" fill="#DCA538"/>
<path d="M357.5 615C360.762 625.56 360.372 631.471 358 642C363.853 639.571 365 634 365 630C365 626 363.672 624.053 362 621.5C364.971 623.078 366.5 624 368 627C369.5 630 371 637.5 374.5 641C378 644.5 382.396 645.626 388 646C386 640 387.5 635.5 384.5 633C381.5 630.5 366.5 622.5 357.5 615Z" fill="#DCA538"/>
<path d="M375 621C365 620 356.485 613.898 350.5 601.5C356.803 607.008 369.332 608.079 376 603.5C384.465 597.687 385.5 584.5 384 586.5C382.5 588.5 379 589 377.5 587.5C376 586 375.5 582.5 378 581C380.5 579.5 383.5 580.5 385.5 582C387.5 583.5 388.5 586 388.5 589C388.5 592 387 602.5 380.5 607C374 611.5 367.979 613.247 357 608.5C366.767 617.159 377.5 615.5 383 614C388.5 612.5 385 622 375 621Z" fill="#DCA538"/>
<path d="M165.039 302H152.319V317.12C152.319 317.24 152.299 317.38 152.259 317.54C152.259 317.7 152.259 317.84 152.259 317.96C152.219 318.08 152.199 318.18 152.199 318.26C152.199 318.34 152.199 318.38 152.199 318.38H165.039V302ZM169.839 322.7H151.059C150.939 323.06 150.659 323.42 150.219 323.78C149.819 324.14 149.419 324.32 149.019 324.32H147.099V303.98C147.099 302.9 146.979 302.22 146.739 301.94C146.539 301.66 146.079 301.4 145.359 301.16C144.839 301.04 144.399 300.86 144.039 300.62C143.679 300.34 143.499 299.92 143.499 299.36C143.499 298.76 143.719 298.34 144.159 298.1C144.599 297.82 145.099 297.68 145.659 297.68H168.099C168.819 297.68 169.359 298 169.719 298.64C170.079 299.24 170.259 299.78 170.259 300.26V314.54C170.259 315.46 170.179 316.26 170.019 316.94C169.899 317.62 169.759 318.12 169.599 318.44H170.139C170.499 318.44 170.799 318.7 171.039 319.22C171.279 319.7 171.399 320.16 171.399 320.6C171.399 321.04 171.259 321.5 170.979 321.98C170.699 322.46 170.319 322.7 169.839 322.7ZM185.919 291.86V308.18H194.979C195.459 308.18 195.879 308.4 196.239 308.84C196.639 309.24 196.839 309.76 196.839 310.4C196.839 311 196.639 311.5 196.239 311.9C195.879 312.26 195.479 312.44 195.039 312.44H185.919V335.24C185.919 337.2 185.579 338.68 184.899 339.68C184.219 340.68 183.299 341.18 182.139 341.18H180.819V295.46C180.819 294.3 180.559 293.54 180.039 293.18C179.559 292.82 178.839 292.54 177.879 292.34C176.919 292.22 176.239 292.02 175.839 291.74C175.439 291.42 175.239 291.02 175.239 290.54C175.239 290.02 175.459 289.62 175.899 289.34C176.339 289.02 176.859 288.86 177.459 288.86H183.339C184.059 288.86 184.659 289.18 185.139 289.82C185.659 290.46 185.919 291.14 185.919 291.86ZM206.928 306.26V312.26H219.108V306.26H206.928ZM223.848 316.46H205.788C205.588 316.9 205.288 317.3 204.888 317.66C204.488 317.98 203.968 318.14 203.328 318.14H201.708V301.16C201.708 300 201.628 299.3 201.468 299.06C201.308 298.78 200.748 298.54 199.788 298.34C199.388 298.3 199.088 298.22 198.888 298.1C198.688 297.94 198.548 297.76 198.468 297.56C198.388 297.4 198.348 297.24 198.348 297.08C198.348 296.88 198.348 296.68 198.348 296.48C198.348 296.04 198.568 295.7 199.008 295.46C199.448 295.22 199.968 295.1 200.568 295.1H204.408C205.128 295.1 205.728 295.38 206.208 295.94C206.688 296.46 206.928 297.12 206.928 297.92V302.12H219.108V299.18C219.108 298.26 219.008 297.64 218.808 297.32C218.648 297 218.128 296.72 217.248 296.48C216.648 296.36 216.208 296.2 215.928 296C215.688 295.76 215.568 295.4 215.568 294.92C215.568 294.36 215.748 293.94 216.108 293.66C216.508 293.38 217.028 293.24 217.668 293.24H221.628C222.348 293.24 222.968 293.54 223.488 294.14C224.048 294.7 224.328 295.4 224.328 296.24V302.3H236.628V295.58C236.628 294.42 236.368 293.66 235.848 293.3C235.368 292.94 234.648 292.66 233.688 292.46C232.768 292.3 232.108 292.08 231.708 291.8C231.308 291.48 231.108 291.1 231.108 290.66C231.108 290.14 231.328 289.74 231.768 289.46C232.248 289.14 232.768 288.98 233.328 288.98H239.208C239.928 288.98 240.548 289.3 241.068 289.94C241.588 290.54 241.848 291.2 241.848 291.92V313.76C241.848 315.72 241.488 317.2 240.768 318.2C240.048 319.2 239.128 319.7 238.008 319.7H236.628V306.5H224.328V308.36C224.328 309.2 224.228 309.98 224.028 310.7C223.828 311.42 223.668 311.96 223.548 312.32H224.148C224.508 312.32 224.808 312.58 225.048 313.1C225.328 313.58 225.468 314.06 225.468 314.54C225.468 314.98 225.288 315.42 224.928 315.86C224.608 316.26 224.248 316.46 223.848 316.46ZM219.888 334.7V340.1H235.728V334.7H219.888ZM240.528 344.36H218.868C218.708 344.76 218.388 345.1 217.908 345.38C217.428 345.7 216.828 345.86 216.108 345.86H214.788V329.72C214.788 328.68 214.648 328.02 214.368 327.74C214.088 327.46 213.548 327.22 212.748 327.02C212.028 326.9 211.548 326.7 211.308 326.42C211.068 326.1 210.948 325.72 210.948 325.28C210.948 324.72 211.148 324.34 211.548 324.14C211.988 323.9 212.488 323.78 213.048 323.78H217.488C218.208 323.78 218.788 324.02 219.228 324.5C219.668 324.98 219.888 325.6 219.888 326.36V330.44H235.728V327.5C235.728 327.1 235.688 326.78 235.608 326.54C235.568 326.26 235.488 326.06 235.368 325.94C235.208 325.78 235.008 325.66 234.768 325.58C234.568 325.5 234.288 325.4 233.928 325.28C233.168 325.16 232.608 324.96 232.248 324.68C231.928 324.4 231.768 324.04 231.768 323.6C231.768 323.04 231.988 322.64 232.428 322.4C232.908 322.16 233.428 322.04 233.988 322.04H238.248C239.088 322.04 239.728 322.28 240.168 322.76C240.648 323.24 240.888 323.9 240.888 324.74V336.44C240.888 337.28 240.848 338.02 240.768 338.66C240.688 339.3 240.588 339.8 240.468 340.16H240.768C241.128 340.16 241.428 340.4 241.668 340.88C241.948 341.36 242.088 341.82 242.088 342.26C242.088 342.74 241.948 343.2 241.668 343.64C241.388 344.12 241.008 344.36 240.528 344.36ZM252.805 306.74C252.805 304.98 253.125 303.36 253.765 301.88C254.445 300.4 255.345 299.12 256.465 298.04C257.625 297 258.965 296.18 260.485 295.58C262.005 294.98 263.645 294.68 265.405 294.68C267.085 294.68 268.685 294.98 270.205 295.58C271.765 296.18 273.125 297 274.285 298.04C275.445 299.12 276.365 300.4 277.045 301.88C277.725 303.36 278.065 304.98 278.065 306.74C278.065 308.62 277.725 310.3 277.045 311.78C276.365 313.26 275.445 314.52 274.285 315.56C273.125 316.6 271.765 317.4 270.205 317.96C268.685 318.52 267.085 318.8 265.405 318.8C263.645 318.8 262.005 318.52 260.485 317.96C258.965 317.36 257.625 316.52 256.465 315.44C255.345 314.4 254.445 313.14 253.765 311.66C253.125 310.18 252.805 308.54 252.805 306.74ZM258.085 306.74C258.085 309.22 258.785 311.16 260.185 312.56C261.625 313.96 263.365 314.66 265.405 314.66C267.405 314.66 269.125 313.96 270.565 312.56C272.045 311.16 272.785 309.22 272.785 306.74C272.785 304.34 272.045 302.44 270.565 301.04C269.125 299.6 267.405 298.88 265.405 298.88C263.325 298.88 261.585 299.58 260.185 300.98C258.785 302.38 258.085 304.3 258.085 306.74ZM284.425 327.32C283.625 327.76 282.645 328.14 281.485 328.46C280.325 328.74 279.085 329 277.765 329.24C276.445 329.44 275.085 329.6 273.685 329.72C272.285 329.8 270.945 329.84 269.665 329.84H251.005C250.365 329.84 249.845 329.62 249.445 329.18C249.085 328.7 248.905 328.22 248.905 327.74C248.905 327.22 249.105 326.74 249.505 326.3C249.905 325.82 250.425 325.58 251.065 325.58H269.365C271.885 325.58 274.285 325.54 276.565 325.46C278.845 325.38 281.185 325.04 283.585 324.44C284.225 324.32 284.705 324.38 285.025 324.62C285.385 324.82 285.585 325.08 285.625 325.4C285.705 325.72 285.625 326.08 285.385 326.48C285.185 326.84 284.865 327.12 284.425 327.32ZM292.765 291.86V335.3C292.765 337.34 292.405 338.84 291.685 339.8C290.965 340.76 290.025 341.24 288.865 341.24H287.545V295.46C287.545 294.3 287.285 293.54 286.765 293.18C286.285 292.82 285.565 292.54 284.605 292.34C283.645 292.22 282.945 292.02 282.505 291.74C282.105 291.42 281.905 291.02 281.905 290.54C281.905 290.02 282.145 289.62 282.625 289.34C283.145 289.02 283.685 288.86 284.245 288.86H290.125C290.845 288.86 291.465 289.18 291.985 289.82C292.505 290.42 292.765 291.1 292.765 291.86ZM121.07 370.4C121.07 372.32 121.01 374.38 120.89 376.58C120.81 378.78 120.65 380.98 120.41 383.18C120.17 385.38 119.83 387.5 119.39 389.54C118.99 391.58 118.47 393.34 117.83 394.82C117.59 395.34 117.21 395.74 116.69 396.02C116.21 396.26 115.77 396.32 115.37 396.2C114.73 396.08 114.35 395.8 114.23 395.36C114.15 394.88 114.17 394.34 114.29 393.74C114.65 392.26 114.91 390.64 115.07 388.88C115.27 387.12 115.41 385.3 115.49 383.42C115.57 381.54 115.61 379.6 115.61 377.6C115.65 375.6 115.67 373.58 115.67 371.54H92.5705C91.9705 371.54 91.4705 371.3 91.0705 370.82C90.7105 370.34 90.5305 369.82 90.5305 369.26C90.5305 368.78 90.7305 368.32 91.1305 367.88C91.5305 367.44 92.0305 367.22 92.6305 367.22H118.31C119.35 367.22 120.07 367.58 120.47 368.3C120.87 369.02 121.07 369.72 121.07 370.4ZM83.5105 401.42H102.17V390.62C102.17 389.42 101.91 388.66 101.39 388.34C100.91 388.02 100.17 387.74 99.1705 387.5C98.4505 387.38 97.9305 387.16 97.6105 386.84C97.2905 386.52 97.1305 386.1 97.1305 385.58C97.1305 385.1 97.3705 384.74 97.8505 384.5C98.3305 384.22 98.8505 384.08 99.4105 384.08H104.63C105.35 384.08 105.97 384.38 106.49 384.98C107.01 385.54 107.27 386.22 107.27 387.02V401.42H130.55C131.23 401.42 131.75 401.68 132.11 402.2C132.47 402.68 132.65 403.12 132.65 403.52C132.65 404.04 132.45 404.54 132.05 405.02C131.69 405.46 131.19 405.68 130.55 405.68H83.5105C82.9105 405.68 82.4105 405.44 82.0105 404.96C81.6105 404.48 81.4105 403.98 81.4105 403.46C81.4105 403.06 81.6105 402.62 82.0105 402.14C82.4105 401.66 82.9105 401.42 83.5105 401.42ZM155.534 371.42H143.354V384.92C143.354 385.08 143.334 385.24 143.294 385.4C143.294 385.56 143.294 385.7 143.294 385.82C143.254 385.94 143.234 386.06 143.234 386.18C143.234 386.26 143.234 386.3 143.234 386.3H155.534V371.42ZM160.334 390.44H142.094C141.974 390.76 141.694 391.14 141.254 391.58C140.854 391.98 140.454 392.18 140.054 392.18H138.134V373.34C138.134 372.26 138.034 371.58 137.834 371.3C137.634 371.02 137.174 370.78 136.454 370.58C135.894 370.42 135.434 370.22 135.074 369.98C134.714 369.7 134.534 369.3 134.534 368.78C134.534 368.18 134.754 367.74 135.194 367.46C135.634 367.18 136.134 367.04 136.694 367.04H158.594C159.314 367.04 159.854 367.36 160.214 368C160.574 368.6 160.754 369.14 160.754 369.62V382.4C160.754 383.32 160.654 384.12 160.454 384.8C160.294 385.48 160.114 386 159.914 386.36H160.634C160.994 386.36 161.294 386.6 161.534 387.08C161.774 387.56 161.894 388.02 161.894 388.46C161.894 388.94 161.754 389.4 161.474 389.84C161.194 390.24 160.814 390.44 160.334 390.44ZM177.974 363.92V394.76C177.974 396.76 177.614 398.26 176.894 399.26C176.214 400.22 175.294 400.7 174.134 400.7H172.874V367.52C172.874 366.32 172.634 365.56 172.154 365.24C171.674 364.88 170.954 364.6 169.994 364.4C169.034 364.28 168.354 364.06 167.954 363.74C167.554 363.42 167.354 363.02 167.354 362.54C167.354 362.02 167.574 361.62 168.014 361.34C168.494 361.06 169.014 360.92 169.574 360.92H175.334C176.054 360.92 176.674 361.22 177.194 361.82C177.714 362.42 177.974 363.12 177.974 363.92ZM150.734 411.02V404.48C150.734 403.4 150.534 402.72 150.134 402.44C149.774 402.12 149.114 401.82 148.154 401.54C147.194 401.3 146.554 401.04 146.234 400.76C145.914 400.48 145.754 400.06 145.754 399.5C145.754 399.02 145.994 398.64 146.474 398.36C146.994 398.08 147.514 397.94 148.034 397.94H153.194C153.914 397.94 154.534 398.24 155.054 398.84C155.574 399.44 155.834 400.12 155.834 400.88V411.08C155.834 411.56 155.894 411.86 156.014 411.98C156.134 412.1 156.474 412.16 157.034 412.16H177.074C177.674 412.16 178.174 412.4 178.574 412.88C179.014 413.4 179.234 413.88 179.234 414.32C179.234 414.8 179.034 415.28 178.634 415.76C178.274 416.28 177.774 416.54 177.134 416.54H157.154C155.034 416.54 153.414 416.16 152.294 415.4C151.214 414.64 150.694 413.18 150.734 411.02ZM200.63 383.78C200.27 383.7 199.95 383.54 199.67 383.3C199.43 383.02 199.41 382.58 199.61 381.98C199.73 381.58 200.01 381.34 200.45 381.26C200.89 381.14 201.23 381.08 201.47 381.08C202.47 381.08 203.45 381.28 204.41 381.68C205.37 382.04 206.23 382.56 206.99 383.24C207.71 383.92 208.29 384.74 208.73 385.7C209.21 386.62 209.45 387.64 209.45 388.76C209.45 391.68 208.43 394.04 206.39 395.84C204.39 397.64 201.89 398.54 198.89 398.54C197.33 398.54 195.89 398.28 194.57 397.76C193.29 397.24 192.21 396.5 191.33 395.54C190.41 394.62 189.69 393.54 189.17 392.3C188.69 391.02 188.45 389.66 188.45 388.22C188.45 386.58 188.79 385.02 189.47 383.54C190.19 382.06 191.19 380.78 192.47 379.7H186.71C186.31 379.7 185.93 379.46 185.57 378.98C185.21 378.5 185.03 378.02 185.03 377.54C185.03 377.06 185.21 376.6 185.57 376.16C185.93 375.68 186.31 375.44 186.71 375.44H209.51C210.11 375.44 210.61 375.7 211.01 376.22C211.41 376.7 211.61 377.14 211.61 377.54C211.61 378.06 211.41 378.56 211.01 379.04C210.61 379.48 210.11 379.7 209.51 379.7H199.97C197.97 380.14 196.41 381.12 195.29 382.64C194.21 384.12 193.67 385.86 193.67 387.86C193.67 389.7 194.19 391.2 195.23 392.36C196.27 393.52 197.53 394.1 199.01 394.1C200.57 394.1 201.81 393.6 202.73 392.6C203.69 391.56 204.17 390.28 204.17 388.76C204.17 387.44 203.87 386.38 203.27 385.58C202.67 384.74 201.79 384.14 200.63 383.78ZM193.31 370.7L190.31 368.18C189.83 367.9 189.55 367.5 189.47 366.98C189.39 366.42 189.51 365.9 189.83 365.42C190.15 365.06 190.55 364.88 191.03 364.88C191.51 364.84 191.93 364.88 192.29 365C193.85 365.8 195.29 366.42 196.61 366.86C197.93 367.3 199.67 367.52 201.83 367.52C202.59 367.52 203.19 367.74 203.63 368.18C204.07 368.62 204.29 369.12 204.29 369.68C204.29 370.4 204.03 370.94 203.51 371.3C203.03 371.66 202.51 371.84 201.95 371.84H197.75C196.63 371.84 195.73 371.74 195.05 371.54C194.37 371.34 193.79 371.06 193.31 370.7ZM232.49 363.86V407.3C232.49 409.3 232.15 410.78 231.47 411.74C230.79 412.74 229.87 413.24 228.71 413.24H227.39V384.02H220.01V404.24C220.01 406.24 219.67 407.72 218.99 408.68C218.31 409.68 217.39 410.18 216.23 410.18H214.91V370.04C214.91 368.84 214.67 368.08 214.19 367.76C213.71 367.4 212.99 367.12 212.03 366.92C211.07 366.8 210.39 366.58 209.99 366.26C209.59 365.94 209.39 365.56 209.39 365.12C209.39 364.64 209.59 364.24 209.99 363.92C210.43 363.6 210.93 363.44 211.49 363.44H217.43C218.15 363.44 218.75 363.76 219.23 364.4C219.75 365.04 220.01 365.72 220.01 366.44V379.76H227.39V367.46C227.39 366.3 227.13 365.54 226.61 365.18C226.13 364.82 225.41 364.54 224.45 364.34C223.49 364.22 222.81 364.02 222.41 363.74C222.01 363.42 221.81 363.02 221.81 362.54C221.81 362.02 222.03 361.62 222.47 361.34C222.95 361.02 223.49 360.86 224.09 360.86H229.91C230.63 360.86 231.23 361.18 231.71 361.82C232.23 362.46 232.49 363.14 232.49 363.86ZM244.109 366.38H262.949C263.789 366.38 264.429 366.74 264.869 367.46C265.349 368.14 265.529 368.8 265.409 369.44C265.369 369.48 265.349 369.52 265.349 369.56C265.349 369.6 265.349 369.64 265.349 369.68C265.309 369.72 265.289 369.76 265.289 369.8C265.289 369.84 265.289 369.86 265.289 369.86H277.409V367.7C277.409 366.5 277.149 365.74 276.629 365.42C276.149 365.06 275.429 364.78 274.469 364.58C273.549 364.42 272.889 364.18 272.489 363.86C272.089 363.54 271.889 363.16 271.889 362.72C271.889 362.2 272.109 361.8 272.549 361.52C273.029 361.24 273.549 361.1 274.109 361.1H279.989C280.709 361.1 281.329 361.4 281.849 362C282.369 362.6 282.629 363.3 282.629 364.1V384.5C282.629 386.54 282.269 388.04 281.549 389C280.829 389.92 279.909 390.38 278.789 390.38H277.409V384.38H264.509C264.109 384.38 263.729 384.18 263.369 383.78C263.009 383.38 262.829 382.88 262.829 382.28C262.829 381.64 263.009 381.12 263.369 380.72C263.729 380.32 264.149 380.12 264.629 380.12H277.409V374.06H264.869C264.709 374.06 264.529 374.04 264.329 374C264.169 373.92 264.029 373.8 263.909 373.64C262.909 375.68 261.609 377.6 260.009 379.4C258.409 381.2 256.689 382.82 254.849 384.26C253.009 385.7 251.129 386.96 249.209 388.04C247.329 389.08 245.589 389.88 243.989 390.44C243.549 390.64 243.109 390.72 242.669 390.68C242.269 390.6 241.949 390.32 241.709 389.84C241.469 389.6 241.389 389.22 241.469 388.7C241.589 388.14 241.809 387.78 242.129 387.62C243.609 386.9 245.209 385.96 246.929 384.8C248.649 383.6 250.309 382.26 251.909 380.78C253.509 379.3 254.949 377.7 256.229 375.98C257.549 374.26 258.509 372.5 259.109 370.7H243.929C243.329 370.7 242.849 370.48 242.489 370.04C242.169 369.56 242.009 369.08 242.009 368.6C242.009 368.16 242.169 367.68 242.489 367.16C242.849 366.64 243.389 366.38 244.109 366.38ZM254.369 402.86H276.209V397.52H256.049C255.409 397.52 254.909 397.28 254.549 396.8C254.229 396.32 254.069 395.86 254.069 395.42C254.069 394.94 254.229 394.48 254.549 394.04C254.869 393.56 255.389 393.32 256.109 393.32H278.909C279.589 393.32 280.169 393.56 280.649 394.04C281.169 394.48 281.429 395.1 281.429 395.9V403.94C281.429 404.82 281.209 405.56 280.769 406.16C280.329 406.72 279.729 407 278.969 407H261.089V411.2C261.089 411.84 261.189 412.22 261.389 412.34C261.589 412.5 261.929 412.58 262.409 412.58H281.489C282.089 412.58 282.549 412.82 282.869 413.3C283.229 413.82 283.409 414.28 283.409 414.68C283.409 415.2 283.229 415.68 282.869 416.12C282.509 416.6 282.049 416.84 281.489 416.84H260.249C258.929 416.84 257.889 416.4 257.129 415.52C256.369 414.64 255.989 413.6 255.989 412.4V408.56C255.989 407.68 255.849 407.1 255.569 406.82C255.329 406.54 254.849 406.3 254.129 406.1C253.649 405.98 253.269 405.78 252.989 405.5C252.709 405.22 252.569 404.84 252.569 404.36C252.569 403.88 252.769 403.52 253.169 403.28C253.569 403 253.969 402.86 254.369 402.86ZM313.811 372.02H329.831C330.751 372.02 331.371 372.42 331.691 373.22C332.011 374.02 332.091 374.76 331.931 375.44C331.531 376.68 330.971 377.9 330.251 379.1C329.571 380.26 328.751 381.38 327.791 382.46L334.871 387.8C335.351 388.28 335.631 388.76 335.711 389.24C335.831 389.72 335.871 390.16 335.831 390.56C335.711 391.04 335.431 391.5 334.991 391.94C334.551 392.34 334.071 392.56 333.551 392.6C333.111 392.68 332.691 392.66 332.291 392.54C331.931 392.42 331.551 392.18 331.151 391.82L324.791 385.58C322.871 387.3 320.871 388.82 318.791 390.14C316.751 391.42 314.891 392.36 313.211 392.96C312.651 393.2 312.151 393.24 311.711 393.08C311.311 392.88 311.011 392.6 310.811 392.24C310.651 391.88 310.631 391.48 310.751 391.04C310.911 390.6 311.311 390.2 311.951 389.84C313.191 389.2 314.511 388.34 315.911 387.26C317.311 386.18 318.651 385.02 319.931 383.78C321.211 382.54 322.351 381.28 323.351 380C324.351 378.68 325.091 377.44 325.571 376.28H313.691C313.091 376.28 312.631 376.04 312.311 375.56C312.031 375.08 311.891 374.6 311.891 374.12C311.891 373.68 312.051 373.22 312.371 372.74C312.691 372.26 313.171 372.02 313.811 372.02ZM317.531 368.06L314.531 365.54C314.051 365.26 313.771 364.86 313.691 364.34C313.611 363.82 313.751 363.32 314.111 362.84C314.391 362.48 314.751 362.28 315.191 362.24C315.671 362.2 316.111 362.24 316.511 362.36C318.071 363.2 319.511 363.84 320.831 364.28C322.151 364.68 323.911 364.88 326.111 364.88C326.831 364.88 327.391 365.14 327.791 365.66C328.191 366.14 328.391 366.62 328.391 367.1C328.391 367.78 328.151 368.3 327.671 368.66C327.191 369.02 326.711 369.2 326.231 369.2H321.911C320.791 369.2 319.891 369.1 319.211 368.9C318.571 368.7 318.011 368.42 317.531 368.06ZM356.651 363.92V388.22C356.651 390.18 356.311 391.66 355.631 392.66C354.951 393.66 354.031 394.16 352.871 394.16H351.551V381.2H344.051V387.62C344.051 389.58 343.711 391.06 343.031 392.06C342.351 393.06 341.431 393.56 340.271 393.56H338.951V370.1C338.951 368.9 338.711 368.14 338.231 367.82C337.751 367.5 337.031 367.24 336.071 367.04C335.111 366.92 334.431 366.7 334.031 366.38C333.631 366.02 333.431 365.6 333.431 365.12C333.431 364.64 333.631 364.26 334.031 363.98C334.471 363.66 334.991 363.5 335.591 363.5H341.471C342.191 363.5 342.791 363.82 343.271 364.46C343.791 365.06 344.051 365.76 344.051 366.56V376.94H351.551V367.58C351.551 366.38 351.291 365.6 350.771 365.24C350.291 364.88 349.571 364.6 348.611 364.4C347.651 364.28 346.971 364.08 346.571 363.8C346.171 363.48 345.971 363.08 345.971 362.6C345.971 362.08 346.191 361.68 346.631 361.4C347.111 361.12 347.651 360.98 348.251 360.98H354.071C354.791 360.98 355.391 361.3 355.871 361.94C356.391 362.54 356.651 363.2 356.651 363.92ZM355.571 399.86V410.96C355.571 412.84 355.191 414.28 354.431 415.28C353.711 416.32 352.851 416.84 351.851 416.84H350.411V401.42H328.031C327.671 401.42 327.311 401.2 326.951 400.76C326.591 400.28 326.411 399.78 326.411 399.26C326.411 398.82 326.591 398.36 326.951 397.88C327.311 397.4 327.671 397.16 328.031 397.16H352.871C353.711 397.16 354.371 397.4 354.851 397.88C355.331 398.36 355.571 399.02 355.571 399.86Z" fill="#DCA538"/>
</svg>
