<svg width="212" height="212" viewBox="0 0 212 212" fill="none" xmlns="http://www.w3.org/2000/svg">
<path fill-rule="evenodd" clip-rule="evenodd" d="M166.252 93.3162L164.266 95.568C163.672 96.2411 163.112 96.8814 162.579 97.4919C159.463 101.056 157.234 103.605 154.343 105.736C151.023 108.185 146.745 110.125 139.116 112.071L138.291 112.281L134.96 118.706L150.425 130.817L151.573 130.033C159.93 124.321 164.108 118.748 170.045 106.777C181.515 109.711 191.901 116.643 197.528 128.04C200.572 134.208 203.722 141.876 205.738 149.629C207.763 157.418 208.594 165.105 207.186 171.401C205.794 177.629 202.976 180.632 199.998 182.457C198.455 183.403 196.816 184.063 195.15 184.671C194.839 184.785 194.52 184.898 194.199 185.013C194.008 185.081 193.817 185.15 193.625 185.219C194.807 177.816 194.79 172.513 193.302 168.382C191.88 164.431 189.202 161.782 185.602 159.436C186.719 158.826 187.691 158.449 188.652 158.252C190.242 157.926 192.005 158.05 194.609 158.773C195.619 159.053 196.665 158.461 196.946 157.451C197.226 156.441 196.635 155.394 195.624 155.114C192.712 154.306 190.293 154.039 187.888 154.532C186.277 154.863 184.767 155.517 183.198 156.434L179.083 139.565C178.835 138.546 177.808 137.922 176.789 138.17C175.77 138.419 175.146 139.446 175.394 140.465L179.568 157.576H178.38L177.708 153.434C177.696 153.24 177.66 152.985 177.558 152.716C177.396 152.292 177.041 151.783 176.393 151.525C175.973 151.358 175.587 151.363 175.321 151.4C175.003 150.115 174.604 149.064 174.071 148.161C173.214 146.71 172.107 145.811 170.904 144.955C170.294 144.521 169.453 144.269 168.742 144.098C167.952 143.909 167 143.749 165.963 143.616C163.885 143.35 161.332 143.176 158.769 143.108C156.205 143.041 153.586 143.079 151.377 143.249C150.273 143.334 149.244 143.453 148.36 143.616C147.517 143.772 146.655 143.992 145.982 144.345C144.2 145.279 142.413 146.523 141.162 148.245C140.425 149.259 139.897 150.408 139.651 151.694C139.628 151.698 139.605 151.702 139.583 151.706C138.858 151.845 138.327 152.279 137.986 152.767C137.411 153.59 137.259 154.725 137.224 155.814C137.185 157.011 137.285 158.599 137.543 160.66L137.682 161.77L138.721 162.186C139.435 162.472 140.134 162.743 140.82 162.999C148.12 165.725 153.875 166.764 159.595 166.333C165.176 165.912 170.569 164.098 177.143 161.373H181.484C185.945 163.932 188.486 166.215 189.73 169.668C191.045 173.32 191.037 178.614 189.368 187.535C188.037 189.405 185.212 191.365 181.616 192.757L180.403 193.227V201.22C175.079 203.969 167.039 205.975 157.623 207.061C148.198 208.148 137.566 208.294 127.245 207.421V200.767C127.245 199.719 126.395 198.869 125.346 198.869C124.298 198.869 123.448 199.719 123.448 200.767V207.052C113.732 205.983 104.541 203.993 97.1382 201.055C96.7782 191.297 96.5749 183.174 96.51 175.438C96.4697 170.625 96.4829 165.96 96.5453 161.143L111.813 156.546C112.615 156.305 113.164 155.566 113.164 154.728V149.191C113.164 148.271 112.504 147.483 111.598 147.322L96.9126 144.708C96.9925 142.025 97.0832 139.228 97.184 136.283C97.2199 135.235 96.3995 134.356 95.3516 134.321C94.3037 134.285 93.4251 135.105 93.3892 136.153C93.2952 138.898 93.21 141.516 93.134 144.035L85.0843 142.602C86.9011 136.001 89.7367 129.276 93.2765 123.724C97.0031 117.879 101.351 113.581 105.89 111.86C106.205 112.014 106.456 112.121 106.709 112.221C106.727 112.227 106.744 112.234 106.76 112.24C106.606 115.124 106.58 117.566 106.891 119.883C107.258 122.605 108.079 125.087 109.589 127.932L110.687 130.002L112.484 128.498C114.203 127.059 115.561 125.929 116.867 124.905C118.491 123.631 120.04 122.517 122.081 121.202L123.433 120.329L122.795 118.852C122.248 117.589 121.877 116.143 121.521 114.111L121.291 112.8L119.981 112.569C116.539 111.961 113.096 110.898 109.52 109.272C108.95 109.012 108.571 108.867 108.289 108.76C108.219 108.733 108.155 108.709 108.096 108.686C107.839 108.585 107.567 108.469 106.963 108.135L106.249 107.741L105.472 107.987C99.4161 109.904 94.1861 115.234 90.0749 121.682C85.9298 128.184 82.7415 136.1 80.8859 143.659L80.403 145.626L109.367 150.781V153.317L79.3312 162.361L79.4197 163.858C79.6007 166.922 79.6128 169.083 79.4151 170.661C79.2201 172.217 78.8431 173.015 78.3971 173.52C77.9377 174.041 77.2005 174.486 75.7995 174.93C74.5547 175.324 73.0032 175.656 70.9586 176.092C70.6657 176.155 70.3627 176.22 70.0491 176.287L66.9793 176.947L68.9894 179.359C70.5471 181.228 72.8353 182.257 75.2314 182.743C77.6417 183.232 80.3299 183.209 82.9372 182.83C85.5509 182.45 88.1619 181.701 90.4343 180.674C91.2421 180.309 92.0245 179.901 92.7582 179.451C92.8566 186.384 93.0632 193.765 93.3895 202.421L93.4351 203.63L94.5509 204.099C103.123 207.703 113.962 209.971 125.165 211.046C136.27 212.111 147.831 212.013 158.058 210.833C168.235 209.659 177.286 207.394 183.242 203.999L184.2 203.452V195.799C187.609 194.309 190.69 192.211 192.445 189.759C193.298 189.369 194.257 189.026 195.362 188.63C195.71 188.506 196.073 188.376 196.452 188.238C198.173 187.609 200.104 186.846 201.982 185.695C205.846 183.327 209.278 179.449 210.892 172.229C212.49 165.078 211.501 156.706 209.413 148.674C207.315 140.606 204.058 132.691 200.932 126.36C194.614 113.562 182.921 106.004 170.379 102.947L166.252 93.3162ZM166.924 104.523C161.279 115.988 157.555 121.089 150.565 126.104L139.78 117.658L140.881 115.536C148.269 113.591 152.866 111.543 156.597 108.792C159.725 106.486 162.19 103.71 165.132 100.342L166.924 104.523ZM92.7074 174.731C91.8333 175.604 90.5238 176.467 88.8705 177.214C86.9425 178.086 84.6767 178.741 82.3912 179.073C80.0993 179.406 77.8659 179.403 75.9861 179.022C75.8522 178.994 75.7209 178.966 75.5922 178.935C76.0704 178.811 76.5223 178.684 76.946 178.55C78.6129 178.022 80.118 177.309 81.2442 176.032C82.3838 174.741 82.9359 173.103 83.1826 171.133C83.3858 169.511 83.3965 167.537 83.2887 165.135L92.7341 162.291C92.6868 166.466 92.6769 170.548 92.7074 174.731ZM110.489 113.804C113.022 114.798 115.521 115.54 118.025 116.059C118.229 117.058 118.459 117.979 118.742 118.852C117.194 119.89 115.882 120.852 114.524 121.917C113.694 122.568 112.848 123.256 111.926 124.02C111.253 122.412 110.864 120.935 110.655 119.377C110.434 117.737 110.405 115.971 110.489 113.804ZM174.649 158.293C168.663 160.728 163.997 162.193 159.309 162.547C154.306 162.924 149.119 162.045 142.148 159.442C141.83 159.323 141.508 159.201 141.182 159.075C141.067 157.966 141.017 157.092 141.013 156.413C147.558 158.497 152.896 159.715 158.156 159.716C163.364 159.716 168.362 158.523 174.278 156.006L174.649 158.293ZM171.777 152.934C166.657 155.011 162.442 155.919 158.156 155.919C153.76 155.919 149.167 154.964 143.295 153.149C143.338 152.087 143.691 151.224 144.234 150.477C145.002 149.419 146.219 148.508 147.744 147.709C147.897 147.628 148.301 147.488 149.049 147.35C149.756 147.22 150.643 147.114 151.667 147.035C153.713 146.878 156.196 146.839 158.669 146.904C161.142 146.969 163.562 147.137 165.481 147.383C166.444 147.506 167.248 147.645 167.856 147.79C168.38 147.916 168.62 148.017 168.687 148.045C168.708 148.053 168.712 148.055 168.702 148.048C169.778 148.814 170.357 149.338 170.801 150.091C171.159 150.698 171.485 151.548 171.777 152.934ZM147.345 150.921C147.252 151.966 148.023 152.888 149.068 152.981C156.155 153.611 160.088 153.46 166.929 152.983C167.975 152.911 168.764 152.003 168.691 150.958C168.618 149.912 167.711 149.123 166.665 149.196C159.932 149.665 156.218 149.804 149.404 149.199C148.36 149.106 147.438 149.877 147.345 150.921Z" fill="black"/>
<path d="M139.857 113.91L137.642 118.182L132.737 124.352L124.827 124.669C123.131 122.837 122.068 121.327 121.324 119.606C120.691 118.144 120.289 116.53 119.922 114.438C126.296 115.563 132.704 115.203 139.857 113.91Z" fill="#FDD8BB"/>
<path fill-rule="evenodd" clip-rule="evenodd" d="M143.32 111.355L139.519 112.042C132.5 113.31 126.332 113.642 120.252 112.569L117.585 112.098L118.052 114.766C118.429 116.916 118.862 118.698 119.581 120.36C120.438 122.341 121.647 124.03 123.434 125.959L124.029 126.601L133.682 126.214L139.242 119.219L143.32 111.355ZM136.438 116.379L136.041 117.145L131.792 122.49L125.64 122.736C124.386 121.304 123.617 120.127 123.066 118.852C122.785 118.203 122.551 117.506 122.341 116.706C126.935 117.228 131.563 117.05 136.438 116.379Z" fill="black"/>
<path d="M41.7671 152.513C44.2985 152.513 46.5134 156.31 46.6716 159C46.5134 152.197 55.3731 153.779 55.0567 159C55.1521 157.588 56.1641 156.152 58.6955 156.152C61.2268 156.152 63.1264 158.811 65.6567 161.848C69.6119 166.594 79.1755 165.445 81.1612 159.949C81.2695 161.331 81.36 162.593 81.4282 163.746L111.379 154.728V149.191L71.3844 142.072L60.9104 102.203L2.21487 96.5074L15.188 147.134V153.463L37.5993 158.209C37.7045 154.206 39.5356 152.513 41.7671 152.513Z" fill="#333B38"/>
<path fill-rule="evenodd" clip-rule="evenodd" d="M0.773071 95.2723C0.370422 95.7423 0.222153 96.3791 0.375793 96.9787L13.2895 147.374V153.463C13.2895 154.36 13.9172 155.134 14.7947 155.32L35.7357 159.755C35.7433 159.871 35.7519 159.988 35.7616 160.105C35.8479 161.15 36.765 161.928 37.8099 161.841C38.8549 161.755 39.632 160.838 39.5458 159.793C39.4994 159.232 39.485 158.721 39.4972 158.259C39.5431 156.513 39.9611 155.548 40.3597 155.057C40.7177 154.616 41.1717 154.412 41.7671 154.412C42.0851 154.412 42.7757 154.713 43.5484 155.829C44.2704 156.872 44.7206 158.164 44.7764 159.111L48.5696 158.956C48.5399 157.679 48.9251 157.082 49.2331 156.804C49.5687 156.5 50.0922 156.321 50.75 156.382C52.1793 156.513 53.2413 157.571 53.1617 158.885L56.9509 159.128C56.9714 158.824 57.0817 158.597 57.2488 158.443C57.406 158.298 57.7958 158.051 58.6955 158.051C59.2405 158.051 59.8974 158.322 60.8741 159.243C61.6597 159.983 62.4406 160.932 63.3889 162.084C63.6453 162.396 63.9139 162.722 64.1982 163.063C66.7066 166.073 70.8115 167.057 74.3766 166.624C76.184 166.404 78.0328 165.793 79.5864 164.761L79.6747 166.257L111.926 156.546C112.729 156.305 113.278 155.566 113.278 154.728V149.191C113.278 148.271 112.618 147.483 111.712 147.322L72.9122 140.415L62.7466 101.721C62.5446 100.952 61.885 100.39 61.0938 100.313L2.39825 94.6178C1.78223 94.558 1.17574 94.8023 0.773071 95.2723ZM73.9968 144.465L102.346 149.511L76.9824 155.908L76.8546 155.422L86.0237 152.419C86.8502 152.148 87.3871 151.351 87.3267 150.483C87.2664 149.616 86.6242 148.9 85.7682 148.746L74.6119 146.744L73.9968 144.465ZM75.6606 150.79L77.6881 151.154L75.9024 151.739L75.6606 150.79ZM71.2561 148.882L72.726 154.65L73.0289 155.803L16.7255 145.486L4.72594 98.6585L59.4103 103.965L69.5498 142.56L71.2561 148.882ZM17.0865 149.412L37.1021 153.08C36.5571 153.881 36.1763 154.835 35.9498 155.919L17.0865 151.924V149.412ZM65.102 158.211L75.6878 160.151L79.2139 159.261C79.2205 159.388 79.2279 159.515 79.2359 159.641C78.4541 161.302 76.4728 162.544 73.9183 162.854C71.2165 163.183 68.562 162.369 67.1152 160.632C66.8807 160.351 66.6451 160.064 66.4086 159.777C65.9754 159.25 65.5393 158.719 65.102 158.211ZM83.1633 161.241C83.1292 160.775 83.0926 160.295 83.0539 159.801C83.0161 159.319 82.99 158.823 82.9755 158.313L109.481 151.628V153.317L83.1633 161.241Z" fill="black"/>
<path d="M37.4018 159.949C38.2532 170.26 53.0808 180.334 70.3093 178.143C80.0861 176.043 81.9042 176.064 81.1763 163.746C81.1081 162.593 81.0176 161.331 80.9093 159.949C78.9236 165.444 69.36 166.594 65.4048 161.848C62.8745 158.811 60.9749 156.152 58.4436 156.152C55.9122 156.152 54.9002 157.588 54.8048 159C55.1212 153.779 46.2615 152.197 46.4197 159C46.2615 156.31 44.0466 152.513 41.5152 152.513C39.2838 152.513 37.4526 154.206 37.3475 158.209C37.3333 158.747 37.3504 159.326 37.4018 159.949Z" fill="#FDD8BB"/>
<path fill-rule="evenodd" clip-rule="evenodd" d="M46.4184 153.667C45.4112 152.213 43.7287 150.615 41.5152 150.615C39.8792 150.615 38.3018 151.257 37.1601 152.663C36.059 154.02 35.5089 155.903 35.4496 158.159C35.4335 158.772 35.4532 159.421 35.5097 160.105C36.0047 166.099 40.4805 171.657 46.7468 175.368C53.0737 179.114 61.5119 181.176 70.5487 180.027L70.629 180.016L70.708 179.999C71.0139 179.934 71.3146 179.87 71.6099 179.807C73.617 179.379 75.3737 179.004 76.8075 178.55C78.4744 178.022 79.9794 177.309 81.1056 176.032C82.2453 174.741 82.7973 173.103 83.0441 171.133C83.288 169.185 83.2544 166.729 83.0715 163.634C83.0024 162.464 82.9109 161.189 82.802 159.801L79.1238 159.304C78.4628 161.133 76.3905 162.523 73.6664 162.854C70.9646 163.183 68.3101 162.369 66.8633 160.632C66.6288 160.351 66.3932 160.064 66.1567 159.777C65.1883 158.598 64.2053 157.402 63.227 156.48C61.9885 155.312 60.4299 154.254 58.4436 154.254C57.2798 154.254 56.243 154.493 55.3793 154.966C54.2225 153.571 52.481 152.751 50.845 152.6C49.3962 152.468 47.8126 152.814 46.56 153.877C46.5134 153.807 46.4662 153.737 46.4184 153.667ZM48.317 158.923C48.2946 157.669 48.6759 157.08 48.9812 156.804C49.3168 156.5 49.8403 156.321 50.4981 156.382C51.9274 156.513 52.9894 157.571 52.9098 158.885C52.7303 161.847 53.3195 163.844 54.4204 165.534C54.9352 166.324 55.5345 167.004 56.0902 167.617C56.1803 167.716 56.2693 167.814 56.3575 167.911C56.8343 168.434 57.2869 168.931 57.7445 169.511C58.3942 170.334 59.5881 170.474 60.411 169.824C61.234 169.175 61.3745 167.981 60.7247 167.158C60.1767 166.464 59.6236 165.857 59.147 165.334C59.0633 165.243 58.9819 165.153 58.9034 165.067C58.3567 164.464 57.9375 163.977 57.6018 163.461C57.0027 162.542 56.5639 161.376 56.6994 159.123C56.7208 158.822 56.8308 158.596 56.9969 158.443C57.1541 158.298 57.5439 158.051 58.4436 158.051C58.9886 158.051 59.6456 158.322 60.6222 159.243C61.4078 159.983 62.1887 160.932 63.137 162.084C63.3934 162.396 63.662 162.722 63.9463 163.063C66.4547 166.073 70.5596 167.057 74.1248 166.624C75.9307 166.404 77.7782 165.794 79.331 164.764C79.4624 167.355 79.4542 169.243 79.2765 170.661C79.0816 172.217 78.7045 173.015 78.2585 173.52C77.7991 174.041 77.062 174.486 75.661 174.93C74.4161 175.324 72.8646 175.656 70.82 176.092C70.5522 176.15 70.2759 176.209 69.9907 176.27C61.8293 177.289 54.2703 175.41 48.6815 172.101C43.0141 168.744 39.6503 164.11 39.2939 159.793C39.2475 159.232 39.2332 158.721 39.2453 158.259C39.2912 156.512 39.7092 155.548 40.1078 155.057C40.4659 154.616 40.9198 154.412 41.5152 154.412C41.8332 154.412 42.5238 154.713 43.2965 155.829C44.0185 156.872 44.4687 158.164 44.5245 159.111C44.7033 162.151 45.6098 165.156 47.8339 168.578C48.4053 169.457 49.5812 169.706 50.4604 169.135C51.3395 168.564 51.5889 167.388 51.0175 166.509C49.1375 163.616 48.4593 161.251 48.317 158.923Z" fill="black"/>
<path d="M182.113 159.475C191.8 164.922 194.783 169.896 191.289 188.269C189.737 190.72 186.369 193.003 182.43 194.528C178.742 195.956 174.552 196.72 170.88 196.337C163.286 195.546 160.438 194.913 159.489 191.907C158.54 188.901 159.489 186.686 159.489 186.686C153.794 184.946 153.319 179.884 158.54 177.669C153.033 174.086 154.901 170.075 160.755 168.018C175.82 165.284 177.813 163.309 176.892 159.475H182.113Z" fill="#FDD8BB"/>
<path fill-rule="evenodd" clip-rule="evenodd" d="M182.61 157.576H174.484L175.046 159.918C175.238 160.719 175.199 161.118 175.104 161.366C175.019 161.59 174.773 161.991 173.865 162.517C171.931 163.639 167.997 164.774 160.416 166.15L160.268 166.177L160.126 166.227C157.051 167.307 154.35 169.11 153.568 171.728C152.938 173.835 153.693 175.791 155.28 177.45C153.713 178.788 152.831 180.563 153.032 182.547C153.265 184.848 154.893 186.707 157.26 187.851C157.257 187.877 157.253 187.903 157.25 187.929C157.103 189.081 157.107 190.669 157.679 192.479C157.998 193.489 158.508 194.384 159.292 195.131C160.061 195.864 161.003 196.367 162.057 196.742C164.09 197.465 166.938 197.835 170.684 198.226C174.726 198.647 179.222 197.805 183.115 196.298C187.217 194.71 191.025 192.234 192.893 189.284L193.087 188.979L193.154 188.623C194.908 179.401 195.137 173.121 193.43 168.382C191.674 163.503 188.003 160.609 183.044 157.82L182.61 157.576ZM159.863 184.814C157.565 184.062 156.88 182.856 156.81 182.165C156.749 181.559 157.087 180.448 158.976 179.553C165.638 179.316 169.552 178.798 176.35 177.308C177.374 177.084 178.022 176.071 177.797 175.047C177.573 174.023 176.561 173.375 175.536 173.599C169.039 175.024 165.361 175.517 159.095 175.749C157.071 174.294 157.073 173.261 157.206 172.815C157.441 172.03 158.566 170.827 161.246 169.858C168.64 168.511 173.19 167.298 175.771 165.801C177.13 165.013 178.151 164.03 178.651 162.72C178.824 162.268 178.919 161.817 178.958 161.373H181.612C186.073 163.932 188.614 166.214 189.858 169.668C191.173 173.32 191.165 178.614 189.496 187.535C188.165 189.405 185.34 191.365 181.744 192.757C178.261 194.106 174.378 194.793 171.077 194.449C167.228 194.048 164.856 193.707 163.329 193.164C162.604 192.906 162.18 192.638 161.911 192.382C161.657 192.14 161.455 191.829 161.3 191.336C160.972 190.299 160.932 189.394 160.986 188.71C167.022 189.122 170.801 188.57 176.806 186.764C177.81 186.462 178.379 185.404 178.077 184.399C177.776 183.395 176.717 182.826 175.713 183.128C169.673 184.944 166.268 185.374 159.863 184.814Z" fill="black"/>
<path d="M187 66.8444C187.158 72.5399 181.324 85.1798 171.495 83.6145C164.359 104.747 148.713 114.623 129.412 114.623C110.11 114.623 101.725 108.928 93.4983 92.1578C85.2715 75.3876 91.9163 35.2026 91.9163 35.2026C118.048 34.6463 132.537 34.7019 158.206 35.2026C162.407 45.7391 168.489 63.9966 169.755 63.6802C171.021 63.3638 171.812 57.0354 176.558 56.8772C181.304 56.719 180.115 56.5991 182.095 57.3519C184.855 59.703 186.842 61.1489 187 66.8444Z" fill="#FDD8BB"/>
<path fill-rule="evenodd" clip-rule="evenodd" d="M158.243 33.3044C132.553 32.8033 118.037 32.7476 91.8758 33.3045L90.3003 33.3381L90.0432 34.8929L91.9163 35.2026C90.0432 34.8929 90.043 34.8938 90.043 34.8938L90.0427 34.8957L90.0377 34.926C90.0344 34.9467 90.0294 34.977 90.0231 35.0167C90.0103 35.0959 89.9917 35.2126 89.9679 35.3647C89.9204 35.6689 89.8521 36.1149 89.7683 36.6871C89.6008 37.8314 89.3714 39.4813 89.1222 41.5123C88.624 45.5721 88.0456 51.1652 87.7263 57.2926C87.4072 63.4141 87.3448 70.1043 87.8891 76.3485C88.4304 82.5584 89.584 88.4891 91.7939 92.9939C95.9696 101.506 100.315 107.487 106.284 111.282C112.257 115.079 119.598 116.522 129.412 116.522C139.391 116.522 148.527 113.965 156.113 108.593C163.369 103.454 169.093 95.8186 172.796 85.6422C177.929 85.8003 181.912 82.6739 184.529 79.0672C187.388 75.127 188.991 70.1417 188.898 66.7917C188.812 63.7224 188.226 61.5732 187.13 59.832C186.175 58.3167 184.886 57.2266 183.686 56.2114C183.565 56.1092 183.445 56.0077 183.327 55.9067L183.077 55.6938L182.77 55.5772C182.545 55.4917 182.364 55.4185 182.206 55.3532C182.18 55.3425 182.153 55.3313 182.125 55.32C182 55.268 181.863 55.2115 181.74 55.1644C181.371 55.0237 181.008 54.9207 180.518 54.8807C180.115 54.8478 179.644 54.8606 179.077 54.8816C178.873 54.8891 178.651 54.8981 178.4 54.9083C177.899 54.9286 177.287 54.9534 176.495 54.9798C173.106 55.0927 171.25 57.4663 170.208 59.269C170.05 59.5414 169.898 59.8257 169.755 60.1036C169.751 60.0941 169.747 60.0845 169.742 60.0749C168.953 58.2976 167.959 55.761 166.858 52.8411C166.084 50.791 165.259 48.5547 164.421 46.2865C162.895 42.1525 161.33 37.9123 159.969 34.4995L159.503 33.329L158.243 33.3044ZM168.695 62.1677L168.696 62.1669C168.666 62.199 168.666 62.2064 168.695 62.1677ZM93.5502 37.0672C118.233 36.5562 132.559 36.6088 156.905 37.0763C158.132 40.2142 159.489 43.8882 160.83 47.5237C161.673 49.8055 162.509 52.0721 163.305 54.1814C164.407 57.1034 165.434 59.7303 166.272 61.6166C166.687 62.5492 167.083 63.3662 167.443 63.9611C167.615 64.2461 167.834 64.5755 168.099 64.8487C168.23 64.9839 168.444 65.1817 168.74 65.3374C169.044 65.4967 169.577 65.6818 170.216 65.522C171.036 65.3169 171.523 64.7268 171.737 64.4393C171.992 64.0985 172.206 63.7027 172.376 63.3681C172.51 63.1046 172.632 62.8543 172.751 62.608C172.98 62.1347 173.202 61.6767 173.495 61.1698C174.351 59.6896 175.264 58.8199 176.621 58.7747C177.424 58.7479 178.071 58.7217 178.58 58.7011C178.824 58.6913 179.035 58.6827 179.217 58.676C179.824 58.6535 180.069 58.6537 180.209 58.6651C180.213 58.6654 180.216 58.6657 180.219 58.6659C180.264 58.6695 180.278 58.6705 180.384 58.7113C180.456 58.7387 180.533 58.7704 180.653 58.8201C180.686 58.8335 180.721 58.8482 180.761 58.8644C180.862 58.9061 180.977 58.9532 181.109 59.0055C181.121 59.0152 181.132 59.0248 181.143 59.0344C182.446 60.142 183.289 60.8587 183.917 61.8559C184.543 62.8493 185.029 64.2709 185.102 66.8971C185.167 69.2426 183.932 73.425 181.456 76.8373C179.004 80.2167 175.714 82.364 171.794 81.7397C170.879 81.594 169.993 82.1296 169.697 83.0071C166.238 93.2501 160.761 100.648 153.918 105.494C147.072 110.343 138.734 112.725 129.412 112.725C119.924 112.725 113.421 111.32 108.321 108.077C103.214 104.831 99.254 99.5798 95.2028 91.3216C93.2993 87.4414 92.1984 82.0602 91.6718 76.0188C91.1481 70.0117 91.2044 63.5112 91.5182 57.4902C91.8316 51.475 92.4003 45.9737 92.8909 41.9748C93.1361 39.9763 93.3615 38.3558 93.5253 37.237C93.5338 37.179 93.5421 37.1224 93.5502 37.0672Z" fill="black"/>
<path d="M169.6 63.6C170.866 63.2836 171.657 56.9552 176.403 56.797C181.149 56.6388 179.959 56.5189 181.94 57.2716L181.624 39.394C173.12 35.9412 167.702 35.1224 158.051 35.1224C162.252 45.6588 168.334 63.9164 169.6 63.6Z" fill="#36281E"/>
<path fill-rule="evenodd" clip-rule="evenodd" d="M182.338 37.635C173.564 34.0725 167.895 33.2239 158.051 33.2239H155.25L156.287 35.8255C157.632 39.1984 159.163 43.3455 160.675 47.4435C161.517 49.7253 162.354 51.9919 163.15 54.1012C164.252 57.0232 165.279 59.6501 166.117 61.5364C166.532 62.4689 166.928 63.286 167.288 63.8809C167.46 64.1658 167.679 64.4953 167.944 64.7685C168.075 64.9036 168.289 65.1014 168.585 65.2571C168.889 65.4164 169.422 65.6015 170.06 65.4418C170.881 65.2367 171.368 64.6465 171.582 64.3591C171.837 64.0183 172.05 63.6225 172.221 63.2879C172.355 63.0244 172.477 62.774 172.596 62.5278C172.825 62.0545 173.047 61.5964 173.34 61.0896C174.196 59.6094 175.109 58.7397 176.466 58.6945C177.269 58.6677 177.916 58.6415 178.425 58.6209C178.669 58.6111 178.88 58.6025 179.062 58.5958C179.669 58.5733 179.914 58.5735 180.054 58.5849C180.058 58.5852 180.061 58.5854 180.064 58.5857C180.109 58.5893 180.122 58.5903 180.229 58.6311C180.301 58.6585 180.378 58.6902 180.498 58.7399C180.531 58.7533 180.566 58.768 180.606 58.7842C180.78 58.8559 180.996 58.9436 181.266 59.0463L183.888 60.0428L183.5 38.1067L182.338 37.635ZM179.748 40.6906L179.997 54.7825C179.681 54.7756 179.325 54.7864 178.922 54.8013C178.718 54.8089 178.496 54.8179 178.245 54.828C177.744 54.8484 177.132 54.8731 176.34 54.8995C172.951 55.0125 171.095 57.3861 170.053 59.1887C169.895 59.4611 169.743 59.7455 169.6 60.0234C169.596 60.0138 169.591 60.0043 169.587 59.9947C168.798 58.2174 167.804 55.6807 166.702 52.7609C165.929 50.7108 165.103 48.4745 164.266 46.2062C163.112 43.0795 161.935 39.8921 160.842 37.0479C168.19 37.2016 172.99 38.0555 179.748 40.6906ZM168.54 62.0875L168.54 62.0867C168.511 62.1187 168.511 62.1262 168.54 62.0875Z" fill="black"/>
<path fill-rule="evenodd" clip-rule="evenodd" d="M126.149 45.7004C125.525 46.5432 125.702 47.7321 126.545 48.3559C130.969 51.6298 135.269 52.3881 144.607 52.3671C145.656 52.3648 146.504 51.5129 146.501 50.4644C146.499 49.4159 145.647 48.5678 144.599 48.5701C135.411 48.5907 132.187 47.8072 128.804 45.3038C127.961 44.68 126.772 44.8576 126.149 45.7004Z" fill="black"/>
<path fill-rule="evenodd" clip-rule="evenodd" d="M115.262 47.4181C114.975 46.4096 113.925 45.8244 112.917 46.1111C107.124 47.7579 104.13 48.3274 99.1045 48.5724C98.0573 48.6234 97.2497 49.5138 97.3007 50.5611C97.3518 51.6083 98.2422 52.4159 99.2894 52.3649C104.677 52.1022 107.966 51.4661 113.955 49.7634C114.963 49.4767 115.549 48.4267 115.262 47.4181Z" fill="black"/>
<path fill-rule="evenodd" clip-rule="evenodd" d="M146.501 66.2895C146.501 65.241 145.651 64.391 144.603 64.391H132.263C131.214 64.391 130.364 65.241 130.364 66.2895C130.364 67.338 131.214 68.188 132.263 68.188H134.261C134.251 68.2822 134.244 68.3735 134.237 68.4619C134.195 69.0671 134.199 69.9377 134.685 70.6861C135.291 71.6173 136.23 71.7936 136.724 71.8312C136.966 71.8497 137.202 71.8432 137.358 71.8382C137.402 71.8368 137.443 71.8355 137.481 71.8342C137.601 71.83 137.695 71.8268 137.8 71.8268C137.818 71.8268 137.837 71.8269 137.857 71.8269C138.168 71.8273 138.671 71.828 139.148 71.7343C139.709 71.6239 140.46 71.3431 141.008 70.6019C141.523 69.9047 141.644 69.0851 141.634 68.3657C141.633 68.3072 141.631 68.248 141.629 68.188H144.603C145.651 68.188 146.501 67.338 146.501 66.2895ZM137.829 68.5953C137.829 68.5953 137.829 68.5934 137.83 68.5893C137.829 68.5932 137.829 68.5953 137.829 68.5953Z" fill="black"/>
<path fill-rule="evenodd" clip-rule="evenodd" d="M109.164 66.1313C109.164 65.0828 108.314 64.2328 107.266 64.2328H98.0895C97.041 64.2328 96.191 65.0828 96.191 66.1313C96.191 67.1798 97.041 68.0298 98.0895 68.0298H99.0972C99.0854 68.1704 99.0764 68.3037 99.0701 68.4302C99.0409 69.0172 99.0469 69.7657 99.3534 70.4244C99.535 70.8145 99.8256 71.1847 100.25 71.4504C100.651 71.7016 101.046 71.7807 101.313 71.8091C101.566 71.836 101.801 71.8257 101.917 71.8205C101.961 71.8186 101.996 71.8169 102.027 71.8154C102.107 71.8116 102.151 71.8095 102.207 71.8095C102.221 71.8095 102.237 71.8096 102.254 71.8097C102.478 71.8106 102.966 71.8128 103.439 71.6827C104.086 71.5051 104.732 71.0891 105.135 70.3264C105.477 69.6811 105.552 68.9551 105.545 68.2967C105.544 68.21 105.541 68.1211 105.538 68.0298H107.266C108.314 68.0298 109.164 67.1798 109.164 66.1313Z" fill="black"/>
<path fill-rule="evenodd" clip-rule="evenodd" d="M154.935 58.9744C154.966 59.0692 155.013 59.3081 154.922 59.7682L154.897 59.8969L154.89 60.0279C154.577 65.5673 153.842 69.2895 152.717 71.8226C151.633 74.2608 150.189 75.6003 148.278 76.4286C144.099 78.2397 139.532 77.8773 134.397 76.788C133.734 76.6473 132.952 76.1182 132.114 74.988C131.291 73.8784 130.561 72.3822 129.952 70.7163C128.726 67.3577 128.149 63.7435 128.149 62.1915C128.149 60.7704 128.549 60.0489 128.901 59.6499C129.268 59.2347 129.751 58.9807 130.265 58.7953C130.292 58.7914 130.336 58.7856 130.4 58.7788C130.579 58.76 130.832 58.741 131.162 58.7232C131.819 58.6877 132.707 58.6606 133.763 58.6404C135.871 58.6 138.583 58.5884 141.326 58.5871C142.825 58.5863 144.348 58.589 145.788 58.5914C149.524 58.5978 152.699 58.6032 153.446 58.5473C154.14 58.4953 154.615 58.6506 154.808 58.7972C154.874 58.8474 154.909 58.8948 154.935 58.9744ZM157.109 55.7769C155.893 54.8509 154.351 54.6718 153.163 54.7608C152.57 54.8052 149.748 54.8005 146.194 54.7946C144.666 54.792 143.003 54.7892 141.324 54.7901C138.579 54.7914 135.836 54.803 133.69 54.844C132.619 54.8646 131.68 54.8927 130.957 54.9317C130.597 54.9511 130.272 54.9743 130.001 55.0029C129.794 55.0248 129.43 55.0663 129.113 55.1754C128.291 55.4584 127.067 55.991 126.055 57.1361C125.333 57.954 124.796 58.9959 124.533 60.293H117.608C117.578 59.7276 117.496 59.1679 117.337 58.6378C116.94 57.3221 116.062 56.2076 114.559 55.6609C114.244 55.5463 113.879 55.488 113.621 55.4519C113.316 55.4094 112.953 55.3723 112.553 55.3395C111.75 55.2735 110.722 55.2184 109.562 55.1747C107.237 55.087 104.313 55.0422 101.445 55.0522C98.5809 55.0621 95.7405 55.1267 93.5907 55.261C92.5251 55.3276 91.5774 55.4143 90.8672 55.5302C90.5251 55.586 90.1506 55.662 89.822 55.7776C89.7006 55.8204 89.5241 55.8893 89.3353 55.9989L86.782 56.5364C85.756 56.7524 85.0993 57.7593 85.3153 58.7853C85.5313 59.8114 86.5382 60.468 87.5642 60.252L88.18 60.1224C88.1621 61.7482 88.2069 63.923 88.4066 66.1757C88.5901 68.2445 88.9105 70.4621 89.4627 72.4433C89.9995 74.3691 90.8248 76.3341 92.1867 77.6415C94.5759 79.9353 97.6947 80.9103 100.666 81.1506C103.638 81.391 106.624 80.913 108.973 80.1298C111.902 79.1535 113.933 76.2935 115.244 73.1946C116.38 70.5076 117.118 67.3132 117.422 64.09H124.481C124.738 66.2844 125.377 69.2576 126.386 72.0188C127.063 73.873 127.944 75.7388 129.064 77.2496C130.169 78.7397 131.662 80.0893 133.609 80.5024C138.916 81.628 144.475 82.2149 149.788 79.9126C152.623 78.6841 154.739 76.6221 156.186 73.3648C157.44 70.5433 158.187 66.8421 158.561 62.0332H170.233C171.281 62.0332 172.131 61.1833 172.131 60.1347C172.131 59.0862 171.281 58.2362 170.233 58.2362H158.662C158.45 57.2438 157.926 56.3996 157.109 55.7769ZM113.307 59.2467C113.441 59.3014 113.501 59.3562 113.534 59.3935C113.576 59.4409 113.641 59.5354 113.701 59.7322C113.835 60.179 113.87 60.8991 113.761 62.0061L113.756 62.0574L113.754 62.109C113.604 65.5651 112.889 69.0142 111.746 71.7158C110.565 74.5101 109.116 76.08 107.773 76.5276C105.851 77.1683 103.378 77.5605 100.972 77.3659C98.5635 77.1711 96.3822 76.4058 94.8163 74.9025C94.2005 74.3113 93.6019 73.1516 93.1203 71.4237C92.654 69.7511 92.3613 67.786 92.1888 65.8403C92.0171 63.904 91.9689 62.0406 91.9737 60.5931C91.9755 60.0669 91.9842 59.599 91.9963 59.2062C92.478 59.1491 93.0937 59.0965 93.8275 59.0506C95.8702 58.923 98.6265 58.859 101.458 58.8492C104.285 58.8394 107.156 58.8836 109.419 58.969C110.553 59.0118 111.518 59.0642 112.242 59.1237C112.606 59.1536 112.89 59.1838 113.097 59.2125C113.216 59.2292 113.282 59.2419 113.307 59.2467Z" fill="black"/>
<path fill-rule="evenodd" clip-rule="evenodd" d="M121.951 100.366C124.536 100.576 127.236 101.654 130.99 103.843C131.896 104.371 133.058 104.065 133.586 103.159C134.114 102.254 133.808 101.091 132.903 100.563C128.994 98.2838 125.699 96.8609 122.258 96.5814C118.788 96.2995 115.415 97.1985 111.377 99.0541C110.425 99.4919 110.007 100.619 110.445 101.572C110.883 102.525 112.01 102.942 112.963 102.504C116.712 100.781 119.396 100.158 121.951 100.366Z" fill="black"/>
<path d="M92.3544 31.9536C118.486 31.3973 132.976 31.4529 158.644 31.9536C168.295 31.9536 173.713 32.7725 182.217 36.2253C183.008 33.8521 183.008 32.27 182.692 29.8969C182.375 27.5238 180.779 25.4608 178.578 24.0432C145.394 20.8028 126.886 21.4046 93.9365 24.0432C93.9365 24.0432 90.9306 24.8342 90.456 27.9984C89.9814 31.1626 90.6142 32.4282 92.3544 31.9536Z" fill="black"/>
<path fill-rule="evenodd" clip-rule="evenodd" d="M179.96 33.3216C179.488 30.7688 178.626 28.7037 177.31 25.8277C145.426 22.7657 127.148 23.3145 95.5169 25.8218L94.68 30.0062C119.367 29.5026 133.769 29.5697 158.663 30.0551C167.341 30.0561 172.775 30.7182 179.96 33.3216ZM92.6017 33.8473C118.573 33.2963 133.028 33.3528 158.607 33.8518L158.625 33.8521H158.644C168.101 33.8521 173.269 34.6412 181.503 37.9844L183.378 38.7458L184.018 36.8257C184.927 34.0995 184.915 32.2094 184.574 29.646C184.163 26.5676 182.127 24.071 179.607 22.4473L179.22 22.1983L178.763 22.1537C145.433 18.8991 126.806 19.5063 93.785 22.1507L93.6166 22.1642L93.4533 22.2072L93.9365 24.0432C93.4533 22.2072 93.4525 22.2074 93.4516 22.2077L93.446 22.2092L93.4374 22.2114L93.4169 22.2171C93.4018 22.2213 93.3836 22.2265 93.3626 22.2328C93.3207 22.2452 93.2673 22.2618 93.204 22.283C93.0777 22.3252 92.9101 22.3864 92.7133 22.4705C92.3231 22.6372 91.7999 22.902 91.2531 23.3021C90.144 24.1137 88.9091 25.5127 88.5785 27.7168C88.4494 28.5777 88.3851 29.3741 88.4104 30.0855C88.4351 30.7794 88.5482 31.5127 88.8663 32.1688C89.2098 32.8773 89.7947 33.4875 90.643 33.7773C91.328 34.0114 92.0116 33.9765 92.6017 33.8473Z" fill="black"/>
<path d="M94.1342 24.4519C101.728 10.6877 118.498 1.19524 139.224 2.30258C159.949 3.40993 171.522 7.8128 178.776 24.4519C145.591 21.2115 127.084 21.8133 94.1342 24.4519Z" fill="#333B38"/>
<path fill-rule="evenodd" clip-rule="evenodd" d="M97.7268 22.2638C105.628 10.8977 120.657 3.21178 139.123 4.19839C149.417 4.74839 157.157 6.11112 163.177 9.23766C168.338 11.9184 172.368 15.968 175.626 22.2452C145.597 19.4663 127.376 19.9582 97.7268 22.2638ZM139.325 0.406779C117.976 -0.733869 100.465 9.04722 92.4719 23.5348L90.7663 26.6262L94.2857 26.3444C127.163 23.7115 145.552 23.1152 178.592 26.3414L181.808 26.6555L180.516 23.6932C176.751 15.0561 171.775 9.42482 164.927 5.86801C158.165 2.3565 149.756 0.964117 139.325 0.406779Z" fill="black"/>
<path d="M137.532 118.657L132.628 124.827L124.717 125.143C123.021 123.312 121.958 121.801 121.214 120.081C119.124 121.428 117.528 122.576 115.858 123.885C118.086 127.377 119.706 128.353 123.027 128.94C122.286 131.171 122.699 133.889 124.084 137.167C121.038 157.311 118.901 168.172 116.49 188.901C119.112 194.426 120.915 197.263 125.508 201.242C130.192 198.355 132.495 195.945 136.267 190.8L131.204 137.167C133.36 134.757 133.73 132.293 134.368 128.94C137.935 129.561 141.098 128.099 144.603 124.194L137.532 118.657Z" fill="#333B38"/>
<path fill-rule="evenodd" clip-rule="evenodd" d="M137.219 116L131.683 122.965L125.531 123.211C124.276 121.779 123.508 120.602 122.957 119.327L122.068 117.271L120.185 118.485C118.046 119.864 116.402 121.046 114.686 122.391L113.33 123.454L114.257 124.907C115.43 126.744 116.555 128.105 117.958 129.067C118.85 129.679 119.789 130.086 120.806 130.382C120.608 132.573 121.14 134.936 122.129 137.403C121.232 143.318 120.412 148.442 119.639 153.272C117.832 164.57 116.282 174.258 114.605 188.682L114.542 189.223L114.775 189.715C117.473 195.4 119.417 198.478 124.265 202.677L125.318 203.589L126.504 202.858C131.461 199.803 133.934 197.193 137.798 191.922L138.224 191.34L133.168 137.776C134.859 135.607 135.448 133.35 135.914 130.977C139.588 130.983 142.817 129.027 146.016 125.462L147.372 123.951L137.219 116ZM132.396 129.151C131.873 131.905 131.523 133.631 130.307 135.269H125.378C124.473 132.757 124.371 130.917 124.829 129.539C125.092 128.745 125.459 127.939 125.92 126.995L131.391 126.776L132.396 129.151ZM134.816 125.126L137.846 121.313L141.768 124.385C139.529 126.475 137.607 127.241 135.682 127.174L134.816 125.126ZM122.448 125.451C122.241 125.877 122.04 126.303 121.852 126.732C121.137 126.522 120.592 126.269 120.107 125.936C119.581 125.576 119.054 125.072 118.451 124.292C119.109 123.803 119.783 123.322 120.508 122.826C121.048 123.706 121.687 124.562 122.448 125.451ZM125.716 139.066H129.476L134.308 190.257C131.22 194.42 129.179 196.571 125.699 198.87C122.244 195.697 120.644 193.171 118.44 188.578C120.083 174.537 121.599 165.06 123.377 153.944C124.104 149.4 124.875 144.582 125.716 139.066Z" fill="black"/>
<path d="M176.372 159.475C162.975 165.059 155.364 166.549 141.092 161.22L146.312 198.869C153.89 201.145 170.044 201.875 170.36 196.337C162.766 195.546 159.918 194.913 158.969 191.907C158.02 188.901 158.969 186.686 158.969 186.686C153.274 184.946 152.799 179.884 158.02 177.669C152.513 174.086 154.381 170.075 160.235 168.018C175.3 165.284 177.293 163.309 176.372 159.475Z" fill="#B17D4C"/>
<path fill-rule="evenodd" clip-rule="evenodd" d="M177.698 156.865L175.642 157.722C168.978 160.5 163.96 162.166 158.917 162.547C153.914 162.924 148.727 162.045 141.756 159.442L138.774 158.328L144.599 200.336L145.766 200.687C149.777 201.892 155.925 202.663 161.144 202.43C163.743 202.313 166.276 201.942 168.243 201.15C170.159 200.38 172.113 198.945 172.256 196.446L172.359 194.637L170.557 194.449C166.708 194.048 164.336 193.707 162.809 193.164C162.083 192.906 161.66 192.638 161.391 192.382C161.137 192.14 160.935 191.829 160.78 191.336C160.402 190.14 160.406 189.118 160.496 188.41C160.542 188.055 160.608 187.782 160.658 187.61C160.683 187.525 160.704 187.465 160.715 187.435C160.718 187.427 160.72 187.421 160.721 187.417L161.548 185.489L159.524 184.871C157.081 184.124 156.361 182.873 156.29 182.165C156.225 181.528 156.602 180.332 158.761 179.416L162.046 178.023L159.055 176.077C156.552 174.449 156.543 173.294 156.686 172.815C156.92 172.03 158.046 170.827 160.726 169.858C168.12 168.511 172.67 167.298 175.251 165.801C176.61 165.013 177.631 164.03 178.131 162.72C178.622 161.433 178.486 160.148 178.218 159.031L177.698 156.865ZM159.34 166.322C156.377 167.412 153.808 169.185 153.048 171.728C152.418 173.835 153.173 175.791 154.76 177.45C153.193 178.788 152.311 180.563 152.512 182.547C152.745 184.848 154.373 186.707 156.74 187.851C156.737 187.877 156.733 187.903 156.73 187.929C156.583 189.081 156.587 190.669 157.159 192.479C157.478 193.489 157.988 194.384 158.772 195.131C159.541 195.864 160.482 196.367 161.537 196.742C162.824 197.199 164.438 197.516 166.399 197.786C165.035 198.251 163.162 198.538 160.974 198.636C156.639 198.831 151.589 198.262 148.021 197.369L143.4 164.043C149.335 165.986 154.282 166.704 159.203 166.333C159.248 166.329 159.294 166.326 159.34 166.322Z" fill="black"/>
<path fill-rule="evenodd" clip-rule="evenodd" d="M114.982 64.866C113.934 64.8856 113.1 65.7514 113.12 66.7997C113.14 67.9041 112.87 69.197 112.379 70.6651C111.891 72.1261 111.228 73.6396 110.535 75.1924C110.488 75.2987 110.44 75.4053 110.392 75.5122C109.76 76.9287 109.107 78.3922 108.634 79.7512C108.138 81.1792 107.741 82.7553 107.911 84.2265C108.254 87.2043 110.263 88.8726 112.476 89.6714C114.6 90.4381 117.089 90.4995 119.129 90.3308C120.174 90.2445 120.951 89.3274 120.865 88.2824C120.779 87.2374 119.862 86.4604 118.817 86.5467C117.01 86.6961 115.148 86.5993 113.765 86.0999C112.47 85.6326 111.814 84.927 111.683 83.7913C111.615 83.2058 111.766 82.3052 112.221 80.9982C112.637 79.7992 113.227 78.4785 113.88 77.0137C113.921 76.9226 113.962 76.8309 114.003 76.7387C114.688 75.2016 115.426 73.5288 115.981 71.8687C116.533 70.2158 116.948 68.4529 116.916 66.7286C116.896 65.6803 116.031 64.8463 114.982 64.866Z" fill="black"/>
</svg>
